<svg width="614" height="487" viewBox="0 0 614 487" fill="none" xmlns="http://www.w3.org/2000/svg">
<rect width="614" height="487" fill="#E5E5E5"/>
<path fill-rule="evenodd" clip-rule="evenodd" d="M488.194 243.219C488.194 198.937 478.632 158.633 459.511 122.301C440.384 85.9725 412.008 56.6623 374.382 34.3641C351.815 20.9927 327.105 11.6619 300.288 6.30959C299.823 6.21634 299.355 6.11688 298.884 6.02363C296.943 5.64754 294.984 5.30253 293.019 4.96996C292.285 4.84252 291.55 4.71509 290.809 4.59697C289.005 4.3017 287.192 4.03128 285.37 3.77641C284.424 3.64276 283.479 3.51222 282.527 3.38789C280.847 3.17031 279.161 2.96206 277.463 2.77247C276.316 2.64503 275.163 2.52692 274.007 2.41192C272.454 2.25961 270.901 2.10731 269.336 1.97677C267.953 1.86177 266.565 1.76852 265.176 1.67217C263.791 1.57892 262.408 1.47635 261.01 1.39864C259.284 1.30229 257.545 1.23702 255.806 1.17485C254.7 1.13134 253.599 1.07539 252.487 1.04431C249.613 0.966606 246.725 0.919983 243.808 0.919983H243.777H243.774H243.771C194.637 0.919983 151.333 12.0691 113.863 34.3672C76.3893 56.6623 48.0936 85.9725 28.9663 122.304L28.9198 122.401L27.8102 124.53C27.4227 125.288 27.0632 126.056 26.685 126.814C26.1085 127.961 25.532 129.111 24.9772 130.267C24.441 131.383 23.9233 132.505 23.4057 133.627C22.8602 134.808 22.3116 135.99 21.7847 137.18C21.2949 138.29 20.8207 139.412 20.3465 140.531C19.8319 141.743 19.3143 142.952 18.8184 144.173C18.369 145.286 17.9381 146.411 17.5011 147.53C17.0207 148.77 16.5371 150.011 16.0753 151.257C15.66 152.376 15.2694 153.504 14.8727 154.629C14.4263 155.891 13.9738 157.156 13.5492 158.428C13.1741 159.553 12.8208 160.684 12.4612 161.816C12.0521 163.105 11.6368 164.395 11.2462 165.691C10.9084 166.81 10.5984 167.939 10.2761 169.067C9.89791 170.394 9.51357 171.718 9.15712 173.055C8.86266 174.167 8.5899 175.293 8.30474 176.415C7.96379 177.77 7.61355 179.125 7.29429 180.493C7.03393 181.602 6.79837 182.724 6.5535 183.84C6.24665 185.239 5.93359 186.628 5.64844 188.036C5.42527 189.13 5.2331 190.234 5.02233 191.334C4.75267 192.773 4.47061 194.209 4.22265 195.658C4.03977 196.733 3.8817 197.818 3.71122 198.896C3.47256 200.391 3.22769 201.877 3.01692 203.385C2.87125 204.416 2.75036 205.461 2.61708 206.496C2.41561 208.056 2.20484 209.613 2.03127 211.186C1.92279 212.165 1.8391 213.154 1.73991 214.136C1.57564 215.783 1.40206 217.43 1.26258 219.09C1.19439 219.929 1.151 220.775 1.08901 221.617C0.955729 223.435 0.81625 225.251 0.717065 227.084C0.689169 227.61 0.676771 228.138 0.651974 228.66C0.416409 233.469 0.280029 238.314 0.280029 243.219C0.280029 243.247 0.280029 243.278 0.280029 243.303V243.356H0.283129C0.301726 287.582 9.78322 328.079 28.7338 364.836C48.013 401.32 76.3893 430.789 113.863 453.24C151.333 475.693 194.637 486.92 243.771 486.92C265.951 486.92 286.932 484.642 306.735 480.122C282.527 474.571 260.084 465.623 239.422 453.24C201.949 430.789 173.575 401.32 154.293 364.836C135.346 328.079 125.864 287.585 125.842 243.359H126.227V243.219C126.227 205.486 136.722 173.754 157.712 148.031C178.702 122.301 207.391 109.439 243.777 109.439C268.254 109.439 289.25 115.199 306.809 126.646C311.09 129.441 315.166 132.574 319.04 136.042C319.294 136.266 319.539 136.499 319.79 136.729C321.346 138.15 322.865 139.635 324.356 141.168C324.746 141.572 325.146 141.97 325.534 142.383C327.238 144.195 328.915 146.063 330.533 148.031C331.429 149.122 332.278 150.238 333.14 151.35C333.707 152.09 334.284 152.824 334.832 153.573C335.505 154.477 336.15 155.4 336.794 156.32C337.321 157.069 337.854 157.815 338.366 158.577C338.998 159.519 339.605 160.476 340.21 161.433C340.693 162.192 341.18 162.947 341.651 163.715C342.243 164.694 342.814 165.695 343.381 166.689C343.821 167.454 344.267 168.215 344.692 168.992C345.253 170.018 345.783 171.059 346.316 172.101C346.71 172.868 347.109 173.63 347.488 174.407C348.011 175.476 348.504 176.567 348.997 177.649C349.347 178.42 349.71 179.184 350.048 179.961C350.531 181.08 350.981 182.212 351.436 183.343C351.746 184.114 352.066 184.878 352.363 185.655C352.806 186.827 353.219 188.021 353.634 189.208C353.901 189.966 354.18 190.719 354.434 191.483C354.843 192.723 355.215 193.982 355.593 195.238C355.813 195.978 356.049 196.708 356.262 197.454C356.631 198.769 356.966 200.105 357.304 201.439C357.481 202.147 357.679 202.847 357.846 203.562C358.181 204.967 358.472 206.396 358.767 207.826C358.906 208.488 359.058 209.141 359.188 209.809C359.486 211.348 359.743 212.911 359.997 214.478C360.09 215.05 360.199 215.612 360.286 216.19C360.549 217.934 360.775 219.709 360.983 221.484C361.036 221.894 361.098 222.298 361.144 222.705C361.377 224.812 361.569 226.941 361.73 229.089C361.736 229.183 361.749 229.273 361.755 229.363C362.083 233.888 362.251 238.504 362.251 243.219C362.251 281.574 351.678 313.694 330.533 339.576C323.513 348.167 315.618 355.301 306.89 361.035C324.297 372.591 345.095 378.401 369.33 378.401C406.026 378.401 434.944 365.458 456.092 339.576C477.213 313.728 487.782 281.652 487.807 243.359H488.194V243.219Z" fill="#061032"/>
<path fill-rule="evenodd" clip-rule="evenodd" d="M613.72 243.219C613.72 198.937 604.158 158.633 585.034 122.304C565.907 85.9725 537.533 56.6623 499.905 34.3672C462.276 12.0691 418.743 0.919983 369.3 0.919983C347.256 0.919983 326.399 3.18275 306.701 7.67098C331.042 13.1849 353.597 22.0712 374.346 34.3672C411.971 56.6623 440.347 85.9725 459.471 122.304C478.596 158.633 488.158 198.937 488.158 243.219C488.158 243.645 488.142 244.061 488.142 244.484H487.776L487.78 244.621C487.78 281.655 477.591 312.908 457.224 338.373L456.059 339.809C434.914 365.539 405.992 378.401 369.3 378.401C344.987 378.401 324.127 372.626 306.689 361.138C306.745 361.104 306.8 361.072 306.856 361.035C298.134 355.245 290.246 348.037 283.235 339.343C262.244 313.306 251.749 281.263 251.749 243.219C251.749 205.486 262.244 173.754 283.235 148.031C290.224 139.465 298.084 132.362 306.776 126.646C289.217 115.199 268.214 109.439 243.737 109.439C207.355 109.439 178.665 122.304 157.675 148.031C136.685 173.754 126.19 205.486 126.19 243.219C126.19 243.645 126.209 244.061 126.212 244.484H125.806L125.809 244.621C125.809 287.999 134.983 327.563 153.336 363.31L154.495 365.539C173.619 401.867 201.918 431.181 239.388 453.476C266.308 469.492 296.253 479.725 329.188 484.235C329.303 484.25 329.421 484.269 329.535 484.284C331.845 484.595 334.163 484.884 336.497 485.139C337.08 485.204 337.666 485.263 338.251 485.326C340.235 485.528 342.222 485.723 344.227 485.888C345.25 485.975 346.285 486.04 347.314 486.115C348.973 486.236 350.628 486.357 352.302 486.448C353.836 486.531 355.389 486.587 356.939 486.65C358.185 486.699 359.415 486.761 360.664 486.796C363.522 486.876 366.398 486.92 369.3 486.92C418.743 486.92 462.28 475.771 499.908 453.476C537.533 431.181 565.91 401.867 585.037 365.539C604.158 329.207 613.72 288.903 613.72 244.621V244.481H613.702C613.705 244.061 613.72 243.642 613.72 243.219Z" fill="#1573FE"/>
</svg>
