<svg width="16" height="16" viewBox="0 0 16 16" fill="none" xmlns="http://www.w3.org/2000/svg">
<path d="M12.0541 14C11.3376 14 10.7568 13.4112 10.7568 12.6849L10.7568 3.31507C10.7568 2.58878 11.2835 2 12 2M3.94595 14C4.66242 14 5.24324 13.4112 5.24324 12.6849L5.24324 3.31507C5.24324 2.58878 4.66242 2 3.94595 2M8.00004 14V13.96M8.00004 11.0501V11.01M8.00004 8.02002V7.97998M8.00004 5.03003V4.98999M8.00004 2.04004V2M3.96395 2C3.24748 2 2.66666 2.58878 2.66666 3.31507V12.6849C2.66666 13.4112 3.24748 14 3.96395 14M12.036 14C12.7525 14 13.3333 13.4112 13.3333 12.6849V3.31507C13.3333 2.58878 12.7525 2 12.036 2" stroke="#485269" stroke-linecap="round" stroke-linejoin="round"/>
</svg>
