<svg width="12" height="19" viewBox="0 0 12 19" fill="none" xmlns="http://www.w3.org/2000/svg">
<path d="M0 0.5H6.2069C7.84584 0.5 9.12779 0.948519 10.0527 1.84556C10.9939 2.7426 11.4645 3.91044 11.4645 5.34908C11.4645 6.26305 11.2292 7.07546 10.7586 7.78632C10.288 8.48025 9.68763 8.95416 8.95741 9.20804C9.83367 9.42807 10.5558 9.92736 11.1237 10.7059C11.7079 11.4676 12 12.39 12 13.4732C12 14.9457 11.5132 16.1559 10.5396 17.1037C9.56592 18.0346 8.27586 18.5 6.66937 18.5H0V0.5ZM3.31035 7.93865H5.69574C6.45842 7.93865 7.05882 7.73554 7.49696 7.32934C7.93509 6.92313 8.15416 6.37306 8.15416 5.67913C8.15416 4.98519 7.93509 4.44358 7.49696 4.0543C7.07505 3.6481 6.46653 3.44499 5.6714 3.44499H3.31035V7.93865ZM3.31035 15.5804H6.03651C6.84787 15.5804 7.48073 15.3773 7.93509 14.9711C8.40568 14.548 8.64097 13.9725 8.64097 13.2447C8.64097 12.5169 8.41379 11.933 7.95943 11.4929C7.5213 11.0529 6.89655 10.8329 6.08519 10.8329H3.31035V15.5804Z" fill="#999999"/>
</svg>
