<svg width="16" height="16" viewBox="0 0 16 16" fill="none" xmlns="http://www.w3.org/2000/svg">
<g id="help-circle-contained" opacity="0.7">
<path id="Icon" d="M8.24927 11.125C8.24927 10.8489 8.02541 10.625 7.74927 10.625C7.47312 10.625 7.24927 10.8489 7.24927 11.125H8.24927ZM7.24927 11.1547C7.24927 11.4308 7.47312 11.6547 7.74927 11.6547C8.02541 11.6547 8.24927 11.4308 8.24927 11.1547H7.24927ZM5.5625 5.6725V6.1725H6.5625V5.6725H5.5625ZM9.4375 5.6725H9.9375V5.6725L9.4375 5.6725ZM7.75 7.39187V6.89187C7.47414 6.89187 7.25039 7.11529 7.25 7.39115L7.75 7.39187ZM7.24927 8.53812V9.03812L8.24927 9.03812V8.53812H7.24927ZM14 7.75C14 11.2018 11.2018 14 7.75 14V15C11.7541 15 15 11.7541 15 7.75H14ZM7.75 14C4.29822 14 1.5 11.2018 1.5 7.75H0.5C0.5 11.7541 3.74594 15 7.75 15V14ZM1.5 7.75C1.5 4.29822 4.29822 1.5 7.75 1.5V0.5C3.74594 0.5 0.5 3.74594 0.5 7.75H1.5ZM7.75 1.5C11.2018 1.5 14 4.29822 14 7.75H15C15 3.74594 11.7541 0.5 7.75 0.5V1.5ZM7.24927 11.125V11.1547H8.24927V11.125H7.24927ZM6.5625 5.6725C6.5625 4.99019 7.10294 4.45312 7.75 4.45312V3.45312C6.5331 3.45312 5.5625 4.45563 5.5625 5.6725H6.5625ZM7.75 4.45312C8.39706 4.45312 8.9375 4.99019 8.9375 5.6725L9.9375 5.6725C9.9375 4.45563 8.9669 3.45312 7.75 3.45312V4.45312ZM8.9375 5.6725C8.9375 6.3548 8.39706 6.89187 7.75 6.89187V7.89187C8.9669 7.89187 9.9375 6.88936 9.9375 5.6725H8.9375ZM7.75 7.39187C7.25 7.39115 7.25 7.39116 7.25 7.39116C7.25 7.39116 7.25 7.39117 7.25 7.39118C7.25 7.3912 7.25 7.39122 7.25 7.39125C7.25 7.39131 7.25 7.39141 7.25 7.39153C7.25 7.39179 7.25 7.39216 7.25 7.39266C7.25 7.39365 7.24999 7.39514 7.24999 7.3971C7.24999 7.40102 7.24998 7.40685 7.24997 7.4145C7.24995 7.42979 7.24992 7.45233 7.24989 7.48135C7.24982 7.5394 7.24972 7.62338 7.24963 7.72715C7.24945 7.93469 7.24927 8.2214 7.24927 8.53812H8.24927C8.24927 8.22177 8.24945 7.93536 8.24963 7.72804C8.24972 7.62438 8.24982 7.5405 8.24988 7.48254C8.24992 7.45356 8.24995 7.43106 8.24997 7.41581C8.24998 7.40819 8.24999 7.40237 8.24999 7.39847C8.24999 7.39652 8.25 7.39504 8.25 7.39406C8.25 7.39357 8.25 7.39319 8.25 7.39295C8.25 7.39282 8.25 7.39273 8.25 7.39267C8.25 7.39264 8.25 7.39262 8.25 7.3926C8.25 7.39259 8.25 7.39259 8.25 7.39259C8.25 7.39258 8.25 7.39258 7.75 7.39187Z" fill="white"/>
</g>
</svg>
