<svg width="16" height="16" viewBox="0 0 16 16" fill="none" xmlns="http://www.w3.org/2000/svg">
<path d="M8.57801 11.3847L7.82106 3.57033C7.77141 3.05779 7.34065 2.66675 6.82572 2.66675H5.20009H3.66666C3.11437 2.66675 2.66666 3.11446 2.66666 3.66675V10.3847C2.66666 10.937 3.11437 11.3847 3.66666 11.3847H6.46681M8.57801 11.3847H6.46681M8.57801 11.3847L6.88905 14.0001M4.07015 8.76623L5.29057 5.47172L6.60359 8.76623M4.49058 7.63128H6.15125M7.94465 4.84624H13C13.5523 4.84624 14 5.29395 14 5.84624V13.0001C14 13.5524 13.5523 14.0001 13 14.0001H6.88905M6.88905 14.0001L6.46681 11.3847M9.62338 8.21027H10.1607M12.5791 8.21027H11.1228M11.1228 7.26116V8.21027M11.1228 8.21027H10.1607M10.1607 8.21027C10.3015 9.08207 10.7288 10.2446 12.496 11.037M12.032 8.21027C11.8913 9.08207 11.6712 10.2308 9.93456 11.037" stroke="#485269" stroke-linecap="round" stroke-linejoin="round"/>
</svg>
