<svg width="16" height="16" viewBox="0 0 16 16" fill="none" xmlns="http://www.w3.org/2000/svg">
<g id="Lang" opacity="0.7">
<path id="Vector 1" d="M7.25908 1.60001L7.75638 1.54813C7.72981 1.29345 7.51514 1.10001 7.25908 1.10001V1.60001ZM1 1.60001V1.10001C0.723858 1.10001 0.5 1.32386 0.5 1.60001H1ZM1 11.6H0.5C0.5 11.8761 0.723858 12.1 1 12.1V11.6ZM8.30226 11.6L8.71275 11.8855C8.78119 11.7871 8.812 11.6674 8.79956 11.5481L8.30226 11.6ZM2.26932 8.4112L2.08405 8.87561L3.01287 9.24615L3.19814 8.78174L2.26932 8.4112ZM4.2413 4.81748L4.70077 4.62027L3.77689 4.63221L4.2413 4.81748ZM5.4038 8.79368L5.60101 9.25314L6.51994 8.85873L6.32274 8.39926L5.4038 8.79368ZM3.25309 6.79461C2.97694 6.79461 2.75309 7.01847 2.75309 7.29461C2.75309 7.57075 2.97694 7.79461 3.25309 7.79461V6.79461ZM5.3045 7.79461C5.58065 7.79461 5.8045 7.57075 5.8045 7.29461C5.8045 7.01847 5.58065 6.79461 5.3045 6.79461V7.79461ZM7.51987 3.60001C7.24373 3.60001 7.01987 3.82386 7.01987 4.10001C7.01987 4.37615 7.24373 4.60001 7.51987 4.60001V3.60001ZM15 4.10001H15.5C15.5 3.82386 15.2761 3.60001 15 3.60001V4.10001ZM15 14.6V15.1C15.2761 15.1 15.5 14.8761 15.5 14.6H15ZM6.2159 14.6L5.72329 14.6857C5.76493 14.9252 5.9728 15.1 6.2159 15.1V14.6ZM9.5936 7.45876H9.0936V8.45876H9.5936V7.45876ZM13.2447 8.45876H13.7447V7.45876H13.2447V8.45876ZM11.9458 6.87006V6.37006H10.9458V6.87006H11.9458ZM12.95 11.6627L13.4115 11.8549L13.7959 10.9317L13.3343 10.7395L12.95 11.6627ZM13.0616 8.0444C13.1089 7.77234 12.9267 7.51345 12.6546 7.46615C12.3825 7.41884 12.1237 7.60105 12.0764 7.87311L13.0616 8.0444ZM9.78007 10.742L9.32092 10.9399L9.71678 11.8582L10.1759 11.6603L9.78007 10.742ZM0.5 1.60001V11.6H1.5V1.60001H0.5ZM8.79956 11.5481L7.75638 1.54813L6.76178 1.65188L7.80496 11.6519L8.79956 11.5481ZM3.19814 8.78174L4.70571 5.00275L3.77689 4.63221L2.26932 8.4112L3.19814 8.78174ZM3.78183 5.01468L5.4038 8.79368L6.32274 8.39926L4.70077 4.62027L3.78183 5.01468ZM3.25309 7.79461H5.3045V6.79461H3.25309V7.79461ZM7.51987 4.60001H15V3.60001H7.51987V4.60001ZM14.5 4.10001V14.6H15.5V4.10001H14.5ZM15 14.1H6.2159V15.1H15V14.1ZM1 12.1H5.69431V11.1H1V12.1ZM5.69431 12.1H8.30226V11.1H5.69431V12.1ZM6.70851 14.5144L6.18692 11.5144L5.2017 11.6857L5.72329 14.6857L6.70851 14.5144ZM11.4458 8.45876H13.2447V7.45876H11.4458V8.45876ZM10.9458 6.87006V7.95876H11.9458V6.87006H10.9458ZM9.5936 8.45876H10.2574V7.45876H9.5936V8.45876ZM10.2574 8.45876H11.4458V7.45876H10.2574V8.45876ZM9.76479 8.0444C9.86035 8.59402 10.0577 9.25892 10.5455 9.91301C11.0339 10.5679 11.7891 11.1794 12.95 11.6627L13.3343 10.7395C12.3122 10.314 11.7119 9.80428 11.3472 9.31517C10.9818 8.82531 10.8283 8.32349 10.75 7.87311L9.76479 8.0444ZM7.25908 1.10001H4.12954V2.10001H7.25908V1.10001ZM4.12954 1.10001H1V2.10001H4.12954V1.10001ZM12.0764 7.87311C11.9901 8.36914 11.8906 8.86232 11.5893 9.3423C11.2939 9.81279 10.7757 10.3128 9.78007 10.742L10.1759 11.6603C11.3255 11.1647 12.0159 10.5435 12.4362 9.87402C12.8506 9.214 12.974 8.54837 13.0616 8.0444L12.0764 7.87311ZM7.89177 11.3145L5.80541 14.3145L6.62639 14.8855L8.71275 11.8855L7.89177 11.3145Z" fill="white"/>
</g>
</svg>
