<svg width="24" height="24" viewBox="0 0 24 24" fill="none" xmlns="http://www.w3.org/2000/svg">
<g id="Leading Icon">
<path id="Vector 192" d="M7.60211 3H6C4.34315 3 3 4.34315 3 6V12C3 13.6569 4.34315 15 6 15H8.19109C9.96378 15 11.3499 13.4711 11.1767 11.7069L10.5878 5.70692C10.437 4.17096 9.14545 3 7.60211 3Z" fill="#FF801E" fill-opacity="0.4"/>
<path id="Vector 1" d="M12.8238 16.5385L11.7937 5.90358C11.744 5.39104 11.3133 5 10.7983 5H8.35308H6C5.44771 5 5 5.44772 5 6V15.5385C5 16.0907 5.44772 16.5385 6 16.5385H10.0296M12.8238 16.5385H10.0296M12.8238 16.5385L10.5885 20M6.85757 13.0728L8.47282 8.71247L10.2106 13.0728M7.41402 11.5707H9.61197M11.9856 7.88462H19C19.5523 7.88462 20 8.33233 20 8.88462V19C20 19.5523 19.5523 20 19 20H10.5885M10.5885 20L10.0296 16.5385M14.2074 12.337H14.9186M18.1194 12.337H16.192M16.192 11.0808V12.337M16.192 12.337H14.9186M14.9186 12.337C15.1049 13.4909 15.6705 15.0295 18.0094 16.0782M17.3953 12.337C17.209 13.4909 16.9177 15.0112 14.6193 16.0782" stroke="#1A1A1A" stroke-linecap="round" stroke-linejoin="round"/>
</g>
</svg>
