<svg width="26" height="25" viewBox="0 0 26 25" fill="none" xmlns="http://www.w3.org/2000/svg">
<path d="M20.9083 16.8948L19.151 15.1351L20.9083 13.3778C21.4894 12.8017 21.9511 12.1165 22.2667 11.3615C22.5823 10.6066 22.7457 9.79669 22.7475 8.97839C22.7493 8.1601 22.5895 7.34951 22.2771 6.59316C21.9648 5.83681 21.5062 5.14959 20.9275 4.57097C20.3489 3.99234 19.6617 3.53371 18.9054 3.22139C18.149 2.90907 17.3384 2.74921 16.5201 2.751C15.7018 2.7528 14.8919 2.9162 14.137 3.23183C13.382 3.54746 12.6968 4.0091 12.1207 4.59025L10.3634 6.34876L8.60494 4.5915L10.3647 2.83423C11.9962 1.20271 14.209 0.286133 16.5164 0.286133C18.8237 0.286133 21.0365 1.20271 22.668 2.83423C24.2995 4.46576 25.2161 6.67857 25.2161 8.98589C25.2161 11.2932 24.2995 13.506 22.668 15.1376L20.9095 16.8948H20.9083ZM17.3937 20.4093L15.6352 22.1666C14.0037 23.7981 11.7909 24.7147 9.48357 24.7147C7.17625 24.7147 4.96344 23.7981 3.33191 22.1666C1.70039 20.5351 0.783814 18.3223 0.783813 16.0149C0.783813 13.7076 1.70039 11.4948 3.33191 9.86328L5.09042 8.10602L6.84768 9.86577L5.09042 11.623C4.50927 12.1991 4.04762 12.8843 3.73199 13.6393C3.41636 14.3943 3.25296 15.2041 3.25117 16.0224C3.24938 16.8407 3.40923 17.6513 3.72155 18.4077C4.03387 19.164 4.49251 19.8512 5.07113 20.4299C5.64976 21.0085 6.33697 21.4671 7.09332 21.7795C7.84967 22.0918 8.66026 22.2516 9.47856 22.2498C10.2969 22.248 11.1067 22.0846 11.8617 21.769C12.6167 21.4534 13.3019 20.9917 13.878 20.4106L15.6352 18.6533L17.3937 20.4106V20.4093ZM16.5139 7.22739L18.2724 8.98589L9.48482 17.7722L7.72631 16.0149L16.5139 7.22863V7.22739Z" fill="#999999"/>
</svg>
