<svg width="18" height="19" viewBox="0 0 18 19" fill="none" xmlns="http://www.w3.org/2000/svg">
<g id="Group 86">
<path id="Vector" d="M5 1.50806H18V3.50806H5V1.50806ZM5 8.50806H18V10.5081H5V8.50806ZM5 15.5081H18V17.5081H5V15.5081Z" fill="#999999"/>
<path id="1" d="M2.35859 4.40207H1.53659V1.79806H0.600586V1.24006C0.880586 1.23606 1.11459 1.16606 1.30259 1.03006C1.49059 0.890058 1.60459 0.716058 1.64459 0.508057H2.35859V4.40207Z" fill="#999999"/>
<path id="2" d="M0.846 9.10406L0.06 9.08006C0.04 8.99206 0.03 8.90206 0.03 8.81006C0.03 8.45006 0.158 8.14406 0.414 7.89206C0.67 7.63606 1.016 7.50806 1.452 7.50806C1.876 7.50806 2.216 7.63006 2.472 7.87406C2.728 8.11406 2.856 8.41006 2.856 8.76206C2.856 9.25806 2.604 9.66006 2.1 9.96807L1.35 10.4241C1.174 10.5361 1.062 10.6541 1.014 10.7781H2.88V11.4921H0C0.00399999 11.1281 0.074 10.8101 0.21 10.5381C0.35 10.2661 0.586 10.0301 0.918 9.83007L1.56 9.44606C1.868 9.26206 2.022 9.03806 2.022 8.77406C2.022 8.62606 1.97 8.50006 1.866 8.39606C1.766 8.29206 1.622 8.24006 1.434 8.24006C1.234 8.24006 1.08 8.30006 0.972 8.42006C0.868 8.54006 0.816 8.69606 0.816 8.88806C0.816 8.96006 0.826 9.03206 0.846 9.10406Z" fill="#999999"/>
<path id="3" d="M1.176 16.6741L0.81 16.0981L1.83 15.2221H0.126V14.5081H2.88V15.1741L1.872 16.0141C2.18 16.0261 2.444 16.1421 2.664 16.3621C2.888 16.5781 3 16.8581 3 17.2021C3 17.5541 2.864 17.8581 2.592 18.1141C2.32 18.3661 1.958 18.4921 1.506 18.4921C1.07 18.4921 0.716 18.3721 0.444 18.1321C0.172 17.8881 0.024 17.5941 0 17.2501L0.798 17.0941C0.806 17.2941 0.874 17.4581 1.002 17.5861C1.134 17.7141 1.302 17.7781 1.506 17.7781C1.706 17.7781 1.866 17.7221 1.986 17.6101C2.106 17.4981 2.166 17.3581 2.166 17.1901C2.166 17.0101 2.106 16.8701 1.986 16.7701C1.87 16.6661 1.718 16.6141 1.53 16.6141C1.406 16.6141 1.288 16.6341 1.176 16.6741Z" fill="#999999"/>
</g>
</svg>
