<svg width="24" height="19" viewBox="0 0 24 19" fill="none" xmlns="http://www.w3.org/2000/svg">
<path d="M2.57252 16.7769C1.24823 15.3703 0.537231 13.7927 0.537231 11.2354C0.537231 6.73544 3.69623 2.70215 8.29009 0.708008L9.43823 2.47972C5.15037 4.79915 4.31209 7.80901 3.9778 9.70672C4.66823 9.34929 5.57209 9.22458 6.45795 9.30686C8.77738 9.52158 10.6057 11.4257 10.6057 13.7927C10.6057 14.9862 10.1316 16.1308 9.28764 16.9747C8.44373 17.8186 7.29913 18.2927 6.10566 18.2927C4.72609 18.2927 3.40695 17.6627 2.57252 16.7769ZM15.4297 16.7769C14.1054 15.3703 13.3944 13.7927 13.3944 11.2354C13.3944 6.73544 16.5534 2.70215 21.1472 0.708008L22.2954 2.47972C18.0075 4.79915 17.1692 7.80901 16.8349 9.70672C17.5254 9.34929 18.4292 9.22458 19.3151 9.30686C21.6345 9.52158 23.4628 11.4257 23.4628 13.7927C23.4628 14.9862 22.9887 16.1308 22.1448 16.9747C21.3009 17.8186 20.1563 18.2927 18.9628 18.2927C17.5832 18.2927 16.2641 17.6627 15.4297 16.7769Z" fill="#999999"/>
</svg>
