<svg width="13" height="15" viewBox="0 0 13 15" fill="none" xmlns="http://www.w3.org/2000/svg">
<g id="Settings">
<path id="Subtract" fill-rule="evenodd" clip-rule="evenodd" d="M10.1952 0.363748C10.5296 0.409117 10.7276 0.734757 10.9186 1.013C11.0004 1.13217 11.1094 1.23539 11.2429 1.31248C11.3566 1.37812 11.4778 1.4189 11.6003 1.4365C11.9339 1.48445 12.313 1.5174 12.5024 1.79624C12.5828 1.91468 12.6558 2.03856 12.7207 2.16722C12.8919 2.50653 12.672 2.89176 12.5075 3.23437C12.4447 3.3652 12.4095 3.51181 12.4095 3.66665C12.4095 3.82148 12.4447 3.96809 12.5075 4.09893C12.672 4.44153 12.8919 4.82676 12.7207 5.16607C12.6558 5.29468 12.5829 5.41851 12.5025 5.5369C12.3131 5.81578 11.934 5.84872 11.6003 5.89667C11.4778 5.91427 11.3566 5.95505 11.2429 6.0207C11.1094 6.09779 11.0003 6.20103 10.9186 6.32022C10.7276 6.5985 10.5296 6.92419 10.1952 6.96956C10.0473 6.98962 9.89628 6.99998 9.74288 6.99998C9.5895 6.99998 9.43854 6.98962 9.29066 6.96956C8.95622 6.9242 8.7582 6.5985 8.56724 6.32021C8.48545 6.20103 8.37643 6.09779 8.2429 6.0207C8.12919 5.95504 8.00794 5.91426 7.88546 5.89667C7.55179 5.84873 7.17264 5.81579 6.98326 5.5369C6.90287 5.41851 6.8299 5.29468 6.76502 5.16607C6.59383 4.82676 6.81371 4.44153 6.9782 4.09893C7.04102 3.96809 7.07621 3.82148 7.07621 3.66665C7.07621 3.51181 7.04102 3.3652 6.9782 3.23437C6.81371 2.89176 6.59383 2.50653 6.76502 2.16722C6.82993 2.03856 6.90294 1.91467 6.98337 1.79624C7.17274 1.5174 7.55183 1.48445 7.88548 1.43651C8.00795 1.41891 8.12919 1.37813 8.2429 1.31248C8.37641 1.23539 8.48543 1.13217 8.56721 1.013C8.75816 0.734753 8.95618 0.409103 9.29059 0.363739C9.43849 0.343676 9.58947 0.333313 9.74288 0.333313C9.8963 0.333313 10.0473 0.343679 10.1952 0.363748Z" fill="#FF801E" fill-opacity="0.4"/>
<circle id="Ellipse 33" cx="1.66667" cy="1.66667" r="1.66667" transform="matrix(-1 0 0 1 7.9726 6.33331)" stroke="#1A1A1A"/>
<path id="Subtract_2" d="M8.90759 3.9979L8.65759 4.43091L8.65759 4.43091L8.90759 3.9979ZM8.90759 12.0019L9.15759 12.4349L9.15759 12.4349L8.90759 12.0019ZM3.80759 12.0019L4.05759 11.5689L4.05759 11.5689L3.80759 12.0019ZM3.80759 3.9979L4.05759 4.43091L4.05759 4.43091L3.80759 3.9979ZM1.10606 5.86693L0.642881 5.67861L1.10606 5.86693ZM2.80773 11.7806L2.76322 11.2826L2.80773 11.7806ZM5.20071 13.5485L5.30226 13.0589L5.20071 13.5485ZM4.54231 12.8586L4.07612 13.0393L4.54231 12.8586ZM10.8169 11.4968L10.4237 11.188L10.8169 11.4968ZM1.40706 9.11551L1.0299 8.78726L1.40706 9.11551ZM11.308 9.11551L11.6852 8.78725L11.308 9.11551ZM11.609 10.133L11.1459 9.9447L11.609 10.133ZM8.17292 3.1413L7.70675 3.32208L8.17292 3.1413ZM7.70675 3.32208C7.88163 3.77306 8.20639 4.17041 8.65759 4.43091L9.15759 3.56488C8.91084 3.42242 8.73456 3.2067 8.6391 2.96053L7.70675 3.32208ZM8.65759 4.43091C9.06429 4.66571 9.51625 4.7561 9.95181 4.71721L9.86287 3.72117C9.62564 3.74235 9.3803 3.69347 9.15759 3.56488L8.65759 4.43091ZM12.0722 5.67861C11.8539 5.14171 11.5623 4.64275 11.21 4.19411L10.4235 4.81174C10.719 5.18797 10.9632 5.60598 11.1459 6.05526L12.0722 5.67861ZM11.3909 7.99998C11.3909 7.6983 11.5016 7.42372 11.6852 7.21271L10.9309 6.5562C10.5949 6.94228 10.3909 7.44793 10.3909 7.99998H11.3909ZM11.6852 8.78725C11.5016 8.57624 11.3909 8.30166 11.3909 7.99998H10.3909C10.3909 8.55203 10.5949 9.05768 10.9309 9.44376L11.6852 8.78725ZM11.2102 11.8056C11.5624 11.357 11.854 10.8582 12.0722 10.3213L11.1459 9.9447C10.9632 10.3939 10.7191 10.8119 10.4237 11.188L11.2102 11.8056ZM9.15759 12.4349C9.38032 12.3063 9.62567 12.2574 9.86291 12.2786L9.9519 11.2826C9.51632 11.2436 9.06432 11.334 8.65759 11.5689L9.15759 12.4349ZM8.63906 13.0393C8.73452 12.7931 8.91081 12.5774 9.15759 12.4349L8.65759 11.5689C8.20633 11.8294 7.88155 12.2268 7.70669 12.6778L8.63906 13.0393ZM6.35755 14.1666C6.78835 14.1666 7.20934 14.1224 7.61606 14.038L7.41293 13.0589C7.07265 13.1295 6.71971 13.1666 6.35755 13.1666V14.1666ZM5.09915 14.038C5.50584 14.1224 5.92679 14.1666 6.35755 14.1666V13.1666C5.99543 13.1666 5.64252 13.1295 5.30226 13.0589L5.09915 14.038ZM3.55759 12.4349C3.80437 12.5774 3.98066 12.7931 4.07612 13.0393L5.0085 12.6778C4.83363 12.2268 4.50885 11.8294 4.05759 11.5689L3.55759 12.4349ZM2.85223 12.2786C3.08949 12.2574 3.33485 12.3063 3.55759 12.4349L4.05759 11.5689C3.65085 11.334 3.19883 11.2436 2.76322 11.2826L2.85223 12.2786ZM0.642881 10.3214C0.861142 10.8582 1.15269 11.357 1.50495 11.8056L2.29144 11.188C1.99605 10.8119 1.75188 10.3939 1.56924 9.94471L0.642881 10.3214ZM1.32422 7.99998C1.32422 8.30166 1.21354 8.57625 1.0299 8.78726L1.78422 9.44376C2.12024 9.05768 2.32422 8.55203 2.32422 7.99998H1.32422ZM1.0299 7.2127C1.21354 7.42371 1.32422 7.6983 1.32422 7.99998H2.32422C2.32422 7.44793 2.12024 6.94228 1.78422 6.5562L1.0299 7.2127ZM1.50513 4.1941C1.15279 4.64274 0.861178 5.1417 0.642881 5.67861L1.56924 6.05525C1.75191 5.60597 1.99613 5.18796 2.29159 4.81173L1.50513 4.1941ZM3.55759 3.56488C3.33487 3.69347 3.08953 3.74236 2.85229 3.72117L2.76332 4.7172C3.19889 4.75611 3.65088 4.66572 4.05759 4.43091L3.55759 3.56488ZM4.07609 2.96052C3.98062 3.2067 3.80435 3.42242 3.55759 3.56488L4.05759 4.43091C4.5088 4.17041 4.83356 3.77305 5.00844 3.32207L4.07609 2.96052ZM6.35755 1.83331C5.92676 1.83331 5.50578 1.87756 5.09907 1.96193L5.30219 2.94109C5.64247 2.8705 5.9954 2.83331 6.35755 2.83331V1.83331ZM7.61614 1.96195C7.2094 1.87757 6.78838 1.83331 6.35755 1.83331V2.83331C6.71973 2.83331 7.0727 2.8705 7.41301 2.9411L7.61614 1.96195ZM5.00844 3.32207C5.05665 3.19774 5.1129 3.09871 5.17099 3.03174C5.2261 2.96821 5.26944 2.94788 5.30219 2.94109L5.09907 1.96193C4.505 2.08517 4.2115 2.61132 4.07609 2.96052L5.00844 3.32207ZM1.78422 6.5562C1.685 6.44219 1.61478 6.32949 1.58051 6.23295C1.54817 6.14184 1.55522 6.08974 1.56924 6.05525L0.642881 5.67861C0.384513 6.31406 0.759551 6.90207 1.0299 7.2127L1.78422 6.5562ZM2.76322 11.2826C2.63057 11.2944 2.51699 11.2879 2.43124 11.2656C2.34985 11.2443 2.31222 11.2145 2.29144 11.188L1.50495 11.8056C1.87895 12.2819 2.47934 12.3119 2.85223 12.2786L2.76322 11.2826ZM5.30226 13.0589C5.26951 13.0521 5.22616 13.0318 5.17105 12.9682C5.11296 12.9012 5.05671 12.8022 5.0085 12.6778L4.07612 13.0393C4.21152 13.3886 4.50502 13.9148 5.09915 14.038L5.30226 13.0589ZM7.70669 12.6778C7.65848 12.8022 7.60223 12.9012 7.54414 12.9682C7.48903 13.0317 7.44569 13.0521 7.41293 13.0589L7.61606 14.038C8.21017 13.9148 8.50367 13.3886 8.63906 13.0393L7.70669 12.6778ZM10.4237 11.188C10.4029 11.2145 10.3653 11.2443 10.2839 11.2655C10.1981 11.2879 10.0846 11.2944 9.9519 11.2826L9.86291 12.2786C10.2358 12.3119 10.8362 12.2819 11.2102 11.8056L10.4237 11.188ZM11.1459 6.05526C11.1599 6.08974 11.1669 6.14184 11.1346 6.23295C11.1003 6.32949 11.0301 6.4422 10.9309 6.5562L11.6852 7.21271C11.9556 6.90208 12.3306 6.31407 12.0722 5.67861L11.1459 6.05526ZM1.56924 9.94471C1.55522 9.91022 1.54817 9.85812 1.58051 9.76701C1.61478 9.67047 1.685 9.55777 1.78422 9.44376L1.0299 8.78726C0.759551 9.09789 0.384513 9.6859 0.642881 10.3214L1.56924 9.94471ZM9.95181 4.71721C10.0844 4.70536 10.198 4.71189 10.2837 4.73424C10.3651 4.75545 10.4027 4.78529 10.4235 4.81174L11.21 4.19411C10.836 3.71791 10.2357 3.68788 9.86287 3.72117L9.95181 4.71721ZM2.29159 4.81173C2.31236 4.78528 2.35 4.75544 2.43137 4.73423C2.51712 4.71187 2.63068 4.70536 2.76332 4.7172L2.85229 3.72117C2.47942 3.68786 1.87911 3.71788 1.50513 4.1941L2.29159 4.81173ZM10.9309 9.44376C11.0301 9.55776 11.1003 9.67047 11.1346 9.76701C11.1669 9.85812 11.1599 9.91022 11.1459 9.9447L12.0722 10.3213C12.3306 9.68589 11.9556 9.09788 11.6852 8.78725L10.9309 9.44376ZM8.6391 2.96053C8.50369 2.61134 8.21019 2.08519 7.61614 1.96195L7.41301 2.9411C7.44575 2.9479 7.48909 2.96823 7.5442 3.03176C7.60229 3.09873 7.65853 3.19775 7.70675 3.32208L8.6391 2.96053Z" fill="#1A1A1A"/>
</g>
</svg>
