<svg width="16" height="19" viewBox="0 0 16 19" fill="none" xmlns="http://www.w3.org/2000/svg">
<path d="M14.1259 4.90866L11.4953 5.73681C11.3816 5.07104 11.0487 4.46211 10.4966 3.91001C9.94453 3.35792 9.14886 3.08187 8.10962 3.08187C7.249 3.08187 6.53452 3.32544 5.96618 3.81259C5.41408 4.29973 5.13803 4.8843 5.13803 5.56631C5.13803 6.75169 5.81192 7.49053 7.15969 7.78281L9.64412 8.29432C11.138 8.5866 12.2909 9.1793 13.1029 10.0724C13.9148 10.9655 14.3207 12.0291 14.3207 13.2632C14.3207 14.6922 13.7686 15.9263 12.6644 16.9655C11.5765 17.9885 10.0907 18.5 8.20705 18.5C6.17728 18.5 4.59406 17.9723 3.45739 16.9168C2.32071 15.8451 1.67931 14.6028 1.53316 13.1901L4.26117 12.4107C4.3586 13.385 4.74832 14.205 5.43032 14.8708C6.11232 15.5365 7.0379 15.8694 8.20705 15.8694C9.21381 15.8694 9.98513 15.6502 10.521 15.2118C11.0731 14.7571 11.3491 14.1806 11.3491 13.4824C11.3491 12.9141 11.1462 12.4269 10.7402 12.021C10.3342 11.5988 9.76591 11.3065 9.03519 11.1441L6.59947 10.6326C5.2517 10.3566 4.17998 9.79635 3.38431 8.95196C2.60488 8.10758 2.21517 7.0521 2.21517 5.78552C2.21517 4.34033 2.79162 3.09811 3.94453 2.05886C5.09744 1.01962 6.47768 0.5 8.08526 0.5C9.92017 0.5 11.3248 0.946549 12.2991 1.83965C13.2734 2.71651 13.8823 3.73951 14.1259 4.90866Z" fill="#999999"/>
<path d="M0.705017 11.0223H15.295V12.9709H0.705017V11.0223Z" fill="#999999"/>
</svg>
