<svg width="20" height="17" viewBox="0 0 20 17" fill="none" xmlns="http://www.w3.org/2000/svg">
<path id="Union" fill-rule="evenodd" clip-rule="evenodd" d="M18.0002 0.5V0.90125C17.544 0.638207 17.0267 0.499823 16.5001 0.5C15.9735 0.500178 15.4562 0.638911 15.0002 0.902261C14.5442 1.16561 14.1656 1.5443 13.9023 2.00029C13.6391 2.45628 13.5005 2.9735 13.5005 3.5C13.5005 4.0265 13.6391 4.54372 13.9023 4.99971C14.1656 5.4557 14.5442 5.83439 15.0002 6.09774C15.4562 6.36109 15.9735 6.49982 16.5001 6.5C17.0267 6.50018 17.544 6.36179 18.0002 6.09875V6.5H19.5005V0.5H18.0002ZM17.5608 4.56066C17.2794 4.84196 16.8978 5 16.4999 5C16.102 5 15.7204 4.84196 15.439 4.56066C15.1577 4.27936 14.9996 3.89783 14.9996 3.5C14.9996 3.10218 15.1577 2.72065 15.439 2.43934C15.7204 2.15804 16.102 2 16.4999 2C16.8978 2 17.2794 2.15804 17.5608 2.43934C17.8421 2.72065 18.0002 3.10218 18.0002 3.5C18.0002 3.89783 17.8421 4.27936 17.5608 4.56066ZM4.65357 11.5H11.1456L13.1456 16.5H15.2996L8.89957 0.5H6.89957L0.499573 16.5H2.65357L4.65357 11.5ZM7.89957 3.385L10.3456 9.5H5.45357L7.89957 3.385Z" fill="#999999"/>
</svg>
