<svg width="16" height="16" viewBox="0 0 16 16" fill="none" xmlns="http://www.w3.org/2000/svg">
<g id="user-profile-circle" opacity="0.7">
<path id="Icon" d="M3.10938 12.8125C3.43364 12.4493 4.9523 10.7781 5.39735 10.7781H10.1029C10.7479 10.7781 12.0644 12.1634 12.3906 12.6518M14.5 7.75C14.5 11.4779 11.4779 14.5 7.75 14.5C4.02208 14.5 1 11.4779 1 7.75C1 4.02208 4.02208 1 7.75 1C11.4779 1 14.5 4.02208 14.5 7.75ZM10.1679 5.44935C10.1679 4.16156 9.08081 3.10938 7.7502 3.10938C6.41963 3.10938 5.33247 4.16156 5.33247 5.44935C5.33247 6.73713 6.41963 7.78932 7.7502 7.78932C9.08078 7.78932 10.1679 6.73713 10.1679 5.44935Z" stroke="white"/>
</g>
</svg>
