<svg width="16" height="15" viewBox="0 0 16 15" fill="none" xmlns="http://www.w3.org/2000/svg">
<g id="Volume up">
<path id="Vector 193" d="M7.85846 5.9282C8.09842 5.72353 8.29179 5.46986 8.52319 5.2556C9.62588 4.23459 9.74676 3.57094 10.5902 2.99589C10.777 2.8685 10.9239 2.68476 11.1625 2.65172C11.4774 2.60812 11.8252 2.65495 12.1391 2.69722L12.1517 2.69892C13.3654 2.8623 14.2317 4.05513 14.6907 5.08647C14.954 5.67819 14.9969 6.32239 15.0349 6.96071C15.0695 7.54229 15.0724 8.16464 14.9739 8.74055C14.7896 9.81823 14.0028 11.2422 12.7456 11.2422C12.0259 11.2422 11.1603 10.9658 10.5528 10.5814C10.2685 10.4014 10.0258 10.1917 9.71893 10.0425C9.37649 9.87603 9.01975 9.72941 8.65496 9.61966C7.90869 9.39511 7.17641 9.31427 6.86332 8.50455C6.64581 7.94203 6.60517 7.31821 6.97345 6.81321C7.22287 6.47119 7.53948 6.20027 7.85846 5.9282Z" fill="#FF801E" fill-opacity="0.4"/>
<path id="Union" d="M8.99999 4.70392C8.99999 2.99159 6.98836 2.07106 5.69257 3.19043L4.7555 3.99992C4.39716 4.30947 3.93944 4.4798 3.46591 4.4798V4.4798C2.10402 4.47981 1 5.58384 1 6.94573V7.54253C1 8.90442 2.10403 10.0085 3.46593 10.0085V10.0085C3.93946 10.0085 4.39719 10.1788 4.75554 10.4883L5.69257 11.2978C6.98836 12.4172 8.99999 11.4966 8.99999 9.78431V7.24411V4.70392Z" stroke="#1A1A1A"/>
<path id="Rectangle 2" d="M11 9.24445C11.4186 8.68734 11.6667 7.99485 11.6667 7.24445C11.6667 6.49404 11.4186 5.80155 11 5.24445" stroke="#1A1A1A" stroke-linecap="round"/>
<path id="Rectangle 3" d="M12.3333 11.2444C13.1705 10.1302 13.6666 8.74525 13.6666 7.24445C13.6666 5.74364 13.1705 4.35866 12.3333 3.24445" stroke="#1A1A1A" stroke-linecap="round"/>
</g>
</svg>
