<svg width="60" height="28" viewBox="0 0 60 28" fill="none" xmlns="http://www.w3.org/2000/svg">
<g clip-path="url(#clip0_1951_12340)">
<path d="M59.4337 15.7616V16.1587L59.3965 16.4833L59.286 17.3128L59.3603 17.7462V18.6845L59.3232 19.0816L59.3603 19.7307V20.0916L59.3232 20.3083V21.174L59.3603 21.5711C59.3603 21.5711 59.2625 22.4465 59.332 22.9381C59.3682 23.1977 59.287 24.0244 59.287 24.0244L59.3046 24.9685V25.4372L59.3613 26.4423C59.3613 26.5865 59.2733 26.9139 59.1256 27.0943C58.9036 27.311 58.6972 27.4561 58.4214 27.457C58.1455 27.457 58.0047 27.3816 57.8052 27.3931C57.6056 27.4045 57.4022 27.416 57.4022 27.416C57.143 27.4523 56.8848 27.4885 56.6256 27.416L56.1815 27.3434H55.7013C55.7013 27.3434 55.0342 27.4675 54.7545 27.4561C54.4748 27.4446 54.2068 27.4265 54.062 27.289C53.9173 27.1506 53.7793 26.8776 53.7793 26.6896V26.3335L53.7422 25.1059L53.7793 24.1313L53.705 23.6979L53.7422 22.7596L53.8165 22.435L53.7422 21.5692V21.0643L53.6678 20.6309C53.6307 20.3779 53.6307 20.2338 53.6678 19.9818L53.705 19.8014L53.7422 19.0434L53.7793 18.5748L53.8165 17.4923L53.7422 16.4823V16.049L53.705 15.4715C53.705 15.2185 53.8527 13.631 53.8527 13.631C53.8527 13.631 53.6854 12.6287 53.7784 11.8355C53.8713 11.0413 53.751 10.5755 53.751 10.5755L53.7304 10.1125L53.7676 9.17416C53.7304 8.88588 53.8419 8.59664 54.0268 8.4525C54.2117 8.30836 54.4337 8.23581 54.6919 8.23581H55.6162L56.0231 8.30836L56.9474 8.27209L57.502 8.30836C57.502 8.30836 58.1309 8.2129 58.2952 8.2129C58.4595 8.2129 58.6874 8.25109 58.9133 8.3475C59.0307 8.39809 59.284 8.59473 59.3134 8.99374C59.3505 9.06629 59.3114 9.1207 59.3114 9.19325L59.3505 9.6438C59.3505 9.93208 59.3124 10.1602 59.329 10.354C59.3457 10.5478 59.3662 10.7912 59.3662 10.7912C59.3662 10.7912 59.3241 12.8378 59.3241 12.9457V13.3246L59.3985 14.4252C59.4356 14.7135 59.4356 15.7607 59.4356 15.7607L59.4337 15.7616ZM52.4335 10.2729V9.33452C52.4707 9.15411 52.3494 8.67014 51.9797 8.41814C51.6471 8.20145 51.474 8.21004 51.2881 8.21672C51.1023 8.2234 50.8431 8.23104 50.8431 8.23104L50.401 8.28832L49.4767 8.46873L49.4024 8.505C49.2175 8.54128 48.9955 8.57755 48.8478 8.68542L48.3304 9.00997L47.7494 9.39657C47.6966 9.40898 47.6477 9.42616 47.6066 9.4548C47.5704 9.48057 47.5411 9.51494 47.5147 9.55312C47.4765 9.58844 47.4061 9.62376 47.3699 9.65908L47.0745 9.91204C47.0745 9.91204 46.608 10.3769 46.3987 10.5144C46.1894 10.6518 45.537 10.8828 45.0802 10.6814C44.9677 10.6318 44.8484 10.5783 44.7261 10.5211C44.5403 10.3922 44.4523 10.3683 44.2234 10.2089C44.0288 10.0734 43.975 9.89581 43.7422 9.7574C43.1993 9.43284 43.1074 9.2362 42.5822 8.88779C42.1958 8.63196 41.5297 8.40955 40.9155 8.31313C40.2543 8.20813 39.4885 8.30454 38.8439 8.40764C38.1123 8.52409 37.5685 8.86583 37.0354 9.04529C36.4799 9.23238 35.8196 9.60658 35.4519 9.86145C35.3247 9.94927 35.1741 10.0533 35.0205 10.1631C34.821 10.0323 34.6185 9.9044 34.4131 9.78031C33.2551 9.08252 31.9728 8.43246 30.5634 8.274C29.1217 8.11172 27.6291 8.45823 26.252 8.93933C24.9795 9.38321 23.7392 9.9779 22.8472 10.9143C22.6213 11.1091 22.413 11.321 22.2252 11.5491C22.0383 11.7754 21.875 12.0178 21.7371 12.2708C21.7351 12.2756 21.7322 12.2794 21.7302 12.2841C21.7175 12.2956 21.7058 12.308 21.695 12.3223C21.4847 12.603 21.3194 12.9094 21.205 13.2311C21.0925 13.5461 21.0035 13.9031 21.2275 14.1971C21.4182 14.4472 21.7263 14.5932 22.0256 14.7231C22.3758 14.8748 22.7406 15.0056 23.1162 15.0992C23.2962 15.144 23.48 15.1803 23.6649 15.207C23.752 15.2328 23.841 15.25 23.9329 15.2586C23.9525 15.27 23.974 15.2796 23.9975 15.2872C24.2087 15.3493 24.4298 15.4037 24.6508 15.3999C24.6909 15.3922 24.732 15.3884 24.7741 15.3855C24.8416 15.3808 24.9081 15.3645 24.9716 15.3407C25.0998 15.2939 25.1898 15.2128 25.2631 15.1106C25.3511 14.9884 25.4167 14.8529 25.4998 14.7288C25.581 14.557 25.67 14.3871 25.7678 14.2229C25.7854 14.1942 25.804 14.1666 25.8216 14.1379C25.9527 13.9852 26.0808 13.8315 26.2128 13.6864C26.7576 13.0888 27.4834 12.7423 28.3549 12.5839C29.239 12.4226 29.7692 12.4598 30.4538 12.7633C31.1004 13.0497 31.7312 13.4745 32.4863 13.8802C33.1455 14.2343 33.4126 14.8443 33.6708 15.6328C33.9221 16.3983 34.1295 17.2393 33.9857 17.9323C33.8556 18.5614 33.928 19.2315 33.7754 19.8625C33.6277 20.4715 33.2649 21.0232 32.9802 21.6322C32.8502 21.91 32.7651 22.1429 32.5802 22.4035C32.4306 22.6135 32.2623 22.815 31.9073 22.9772C31.4534 23.1853 30.8637 23.5213 30.1956 23.6025C29.5667 23.6788 28.9202 23.5022 28.3803 23.4001C28.1299 23.3533 27.812 23.2836 27.5499 23.171C27.2721 23.0517 27.098 22.9075 26.9229 22.751C26.4906 22.3625 26.0534 22.0379 25.8245 21.5845C25.6964 21.3306 25.5917 21.0624 25.5018 20.7874C25.3061 20.0429 25.1761 19.2611 25.0577 18.5146C25.0196 18.2731 24.998 18.0326 24.9354 17.793C24.9218 17.7032 24.911 17.6126 24.9022 17.5219C24.9022 17.4942 24.9022 17.4655 24.9022 17.4379C24.9022 17.2813 24.911 17.12 24.8797 16.9644C24.8797 16.9625 24.8337 16.7105 24.7457 16.6293C24.6586 16.5482 24.4376 16.4547 24.3349 16.3783C24.2263 16.322 24.1139 16.2714 23.9984 16.2294C23.9711 16.2065 23.9378 16.1864 23.8987 16.174C23.7089 16.1148 23.5182 16.0556 23.3284 15.9955C23.303 15.9869 23.2776 15.9774 23.2531 15.9697C22.8492 15.8371 22.4227 15.7244 21.9914 15.692C21.7224 15.6442 21.4349 15.6137 21.163 15.6433C21.0935 15.6509 21.025 15.6624 20.9585 15.6795C20.9585 15.6767 20.9595 15.6748 20.9605 15.6719C20.8108 15.7683 20.6504 15.859 20.537 15.9879C20.4568 16.0795 20.3981 16.1845 20.3502 16.2933C20.2054 17.2078 20.1702 18.1347 20.2572 19.0559C20.2964 19.4682 20.3433 19.8911 20.49 20.2806C20.492 20.2863 20.493 20.292 20.4939 20.2987C20.4998 20.3226 20.5106 20.3426 20.5223 20.3608C20.5428 20.4104 20.5663 20.46 20.5908 20.5078C20.669 20.733 20.7492 20.9593 20.8128 21.1865C20.8539 21.3335 20.8871 21.4824 20.9194 21.6322C20.6651 21.7611 20.4088 21.869 20.1956 22.0103C20.1076 22.0685 20.0235 22.1305 19.9423 22.1945C19.5804 22.3615 19.2126 22.5124 18.838 22.6193C18.3793 22.75 17.903 22.751 17.4433 22.6574C17.2457 22.5419 17.01 22.3835 16.83 22.2651C16.8124 22.2537 16.7928 22.2613 16.7811 22.2489C16.6295 22.099 16.4642 21.9768 16.2842 21.8585C16.1835 21.7926 16.0211 21.7038 15.9419 21.6332C15.9047 21.6007 15.8773 21.5683 15.8519 21.5377C15.7962 21.427 15.7209 21.3029 15.5751 21.134C15.3697 20.8953 15.0606 20.5374 14.7525 20.1794C14.6371 19.9627 14.4581 19.6324 14.4083 19.5751C14.2694 19.4176 14.2498 19.2735 14.1872 19.1437C14.0737 18.906 14.0112 18.7074 13.9026 18.5032C13.793 18.2989 13.3011 17.3691 13.2336 17.1916C13.1661 17.014 13.1602 16.9501 13.1367 16.8775C13.0428 16.5873 12.9675 16.3917 12.8316 16.1511C12.7259 15.964 12.5773 15.7569 12.4804 15.5889C12.3836 15.4209 12.3249 15.3244 12.2379 15.1708C12.2183 15.1374 12.1772 15.06 12.142 14.9827C12.0628 14.8071 11.9992 14.6706 11.9797 14.4625C11.963 14.2868 12.011 14.1809 12.0589 13.99C12.0667 13.9585 12.1097 13.8535 12.1176 13.82C12.1254 13.7866 12.1391 13.7408 12.1489 13.7122C12.2878 13.3008 12.4306 13.0134 12.5871 12.5753C12.633 12.4474 12.6438 12.3777 12.7387 12.1066C12.8345 11.8355 13.1387 11.3105 13.3265 10.9983C13.5143 10.6862 13.6737 10.2891 13.8703 10.0037C14.0679 9.71826 14.3701 9.21807 14.5276 8.96415C14.6851 8.71119 14.7232 8.66442 14.8504 8.47255C14.9628 8.30168 14.9511 8.30741 15.0548 8.08595C15.1585 7.86449 15.3639 7.41202 15.4881 7.16956C15.6133 6.92615 15.6671 6.87842 15.8138 6.61782C15.9311 6.40877 16.4662 5.42938 16.7342 4.975C16.9219 4.65618 17.007 4.04907 16.7938 3.72929C16.6667 3.53933 16.5072 3.24342 15.9595 3.21001C15.4118 3.1766 14.2107 3.15464 13.8214 3.18614C13.4898 3.21287 13.3343 3.18614 13.0018 3.19091C12.8169 3.19378 12.7025 3.17087 12.4306 3.22051C12.0002 3.30069 11.5258 3.60329 11.3077 3.9393C11.0896 4.27531 10.5155 5.39406 10.5076 5.40456C10.312 5.70239 10.0929 6.19781 9.96479 6.46891C9.83666 6.73905 9.79167 6.74191 9.67332 6.96337C9.55497 7.18579 9.42586 7.42252 9.27328 7.6373C9.19699 7.74421 9.19308 7.78048 9.1295 7.93226C9.06592 8.08404 8.94562 8.38759 8.85074 8.55178C8.75587 8.71596 8.64045 8.87442 8.55145 9.02333C8.46146 9.17225 8.36072 9.2992 8.29323 9.44525C8.15337 9.74881 7.98513 10.1545 7.8482 10.418C7.71127 10.6814 7.61248 10.8189 7.45892 11.0289C7.30536 11.2389 7.00606 11.4699 6.84077 11.6026C6.67547 11.7343 6.73122 11.7133 6.58059 11.824C6.51017 11.8765 6.31358 11.9271 6.18838 11.8995C6.13948 11.889 6.03678 11.867 5.98494 11.7964C5.93408 11.7267 5.93799 11.6875 5.90278 11.5663C5.86659 11.4441 5.91843 10.7311 5.90962 10.5421C5.90571 10.4609 5.89789 10.2853 5.89691 10.2204C5.89593 10.1555 5.95755 9.32975 5.92625 9.19229C5.89397 9.05483 5.87735 8.27591 5.88908 8.16995C5.90082 8.06399 5.89006 8.07545 5.893 8.05349C5.90865 7.90171 5.82453 6.18731 5.83236 6.04317C5.84018 5.89998 6.08275 4.85091 6.04851 4.25812C6.02308 3.81998 5.4509 3.2921 5.08705 3.27873C4.777 3.26728 4.69386 3.28542 4.44836 3.26823C4.20286 3.25105 4.11092 3.26633 3.89476 3.25678C3.6786 3.24723 3.38517 3.24437 3.18662 3.23292C2.98807 3.22146 2.86287 3.21001 2.68584 3.19282C2.5088 3.17564 1.94444 3.21287 1.8212 3.19855C1.69894 3.18423 1.68623 3.18328 1.64319 3.18137C1.42703 3.17182 1.29695 3.15369 1.10133 3.21287C0.823552 3.29687 0.453834 3.46965 0.312989 3.71593C0.272887 3.78657 0.26604 3.84957 0.233763 3.91639C0.22007 3.94502 0.214202 3.97653 0.212245 4.00612C0.19953 4.23999 0.19953 4.55499 0.178012 4.76404C0.157472 4.9731 0.0978087 5.00746 0.0743345 5.21174C0.0508603 5.41602 0.131064 6.38204 0.127151 6.50232C0.123239 6.62259 0.12813 6.60064 0.124217 6.63214C0.105633 6.76387 0.0890059 6.85742 0.089984 6.96815C0.0909621 7.15238 0.10759 7.38052 0.105633 7.54089C0.104655 7.70126 0.0870497 7.77762 0.0811811 7.92176C0.0743345 8.11936 0.164319 8.41814 0.163341 8.484C0.160407 8.58996 0.105633 8.64532 0.0978087 8.68446C0.057707 8.88683 0.0449918 8.98897 0.0479261 9.19325C0.0508603 9.35552 0.0410794 9.59989 0.0459699 9.7679C0.0508603 9.9359 0.0508603 9.96549 0.0704222 10.1574C0.0890059 10.3492 0.127151 11.1893 0.145735 11.3954C0.164319 11.6016 0.202464 12.0665 0.207355 12.2087C0.211267 12.35 0.207355 12.3376 0.205399 12.3729C0.198552 12.6097 0.175078 12.7194 0.188771 12.9504C0.19953 13.1223 0.234741 13.3666 0.236698 13.5547C0.238654 13.7427 0.234741 13.8076 0.223982 14.0339C0.212245 14.2601 0.195618 14.8691 0.184859 15.0734C0.1741 15.2777 0.132042 15.3159 0.11248 15.4247C0.079225 15.6137 0.0479261 15.7158 0.0440137 15.8791C0.0371671 16.1387 0.0264081 16.4547 0.02543 16.6866C0.0234738 16.9186 -0.00684703 16.9014 0.00782433 17.1544C0.0224957 17.4064 0.0802031 17.8951 0.114436 18.1729C0.148669 18.4507 0.0176052 18.6998 0.0459699 18.968C0.0743345 19.2363 0.0743345 19.6324 0.089984 19.8787C0.105633 20.1259 0.134976 20.1765 0.144757 20.4152C0.154538 20.6538 0.155516 21.0566 0.147691 21.2924C0.138889 21.5292 0.0811811 21.658 0.0704222 21.8718C0.0596632 22.0857 0.0625974 22.3472 0.0645536 22.5477C0.0665098 22.7481 0.0860716 22.8159 0.117371 23.0192C0.127151 23.0803 0.145735 23.1214 0.163341 23.2626C0.180946 23.4039 0.0479261 24.1848 0.0616193 24.3642C0.0753126 24.5437 0.0909621 24.7174 0.0929182 24.873C0.0948744 25.0286 0.0489042 25.9593 0.046948 26.0863C0.0449918 26.2524 0.0459699 26.3784 0.0459699 26.4776C0.0459699 26.7707 0.1741 27.0313 0.226917 27.1124C0.306142 27.2356 0.575117 27.4523 0.798122 27.4599C1.11111 27.4713 1.10524 27.457 1.25587 27.4389C1.61678 27.3959 2.33568 27.2747 2.67312 27.3348C3.00959 27.3959 3.14554 27.3835 3.42136 27.4169C3.53189 27.4303 3.54362 27.4255 3.6473 27.4284C3.75098 27.4313 3.74804 27.4456 3.89769 27.4351C4.04636 27.4236 4.22829 27.3902 4.37109 27.3845C4.64006 27.373 4.90415 27.4895 5.15747 27.4484C5.36483 27.415 5.56534 27.3062 5.64065 27.2508C5.7365 27.1792 5.92919 26.9883 5.94092 26.5177C5.94875 26.1903 5.9018 25.0601 5.93603 24.7346C5.94777 24.621 5.95266 24.5752 5.95951 24.4415C5.96635 24.3079 5.98885 24.2869 5.98396 24.074C5.97907 23.8612 5.94875 23.3762 5.92919 23.108C5.92723 23.0841 5.92919 23.0546 5.93701 23.0307C5.94484 23.0068 5.96048 22.9562 5.9644 22.9333C5.99961 22.7338 6.01037 22.54 6.00841 22.3386C6.00646 22.0742 6.01232 21.6809 5.98787 21.4518C5.96342 21.2227 6.03873 21.0509 5.99472 20.8638C5.98689 20.8314 5.98787 20.8056 5.99276 20.7769C6.06612 20.2815 6.05047 19.8042 6.00254 19.3098C6.00254 19.3021 6.00254 19.2878 6.00254 19.2792C5.99276 18.759 5.98005 17.7491 6.08372 17.3586C6.1874 16.9682 6.17077 17.2489 6.26076 17.0064C6.26663 16.9921 6.26956 16.9873 6.27152 16.9759C6.27445 16.9654 6.27152 16.973 6.2725 16.9711C6.32825 16.8231 6.58548 16.804 6.73122 16.8651C6.79871 16.8938 6.85544 16.9291 6.9151 16.9615C6.97476 16.994 7.00215 17.0207 7.02954 17.0818C7.14006 17.3281 7.1743 17.3882 7.31808 17.6841C7.47946 18.0163 7.74844 18.6721 7.93329 19.0177C8.11815 19.3642 8.23357 19.4167 8.42919 19.7747C8.6248 20.1317 8.94073 20.7798 9.1383 21.154C9.33588 21.5282 9.50606 21.8499 9.69484 22.163C9.88459 22.4761 10.002 22.6317 10.2191 22.9247C10.2885 23.0183 10.3414 23.0765 10.4724 23.235C10.6045 23.3934 11.071 23.9366 11.204 24.0759C11.3371 24.2163 11.3371 24.242 11.3928 24.3069C11.5493 24.4902 11.6119 24.6067 11.7811 24.7441C11.8085 24.767 11.8339 24.788 11.8603 24.809C12.367 25.503 12.9411 25.9335 13.2942 26.1369C13.7999 26.428 14.153 26.8194 14.555 26.9874C15.091 27.2107 15.6103 27.1554 16.0622 27.2212C16.5591 27.2938 17.0295 27.4818 17.5685 27.4542C17.6193 27.4513 17.6712 27.4456 17.723 27.4379C17.7504 27.4446 17.7788 27.4484 17.8101 27.4475C18.5456 27.415 19.2713 27.3177 19.9824 27.1592C20.2484 27.1544 20.4998 27.1325 20.7336 27.0523C20.8901 26.9979 21.0338 26.9215 21.1718 26.8308C22.0432 26.5416 22.8815 26.155 23.6698 25.6729C24.4503 26.2877 25.3022 26.8614 26.3253 27.1363C26.6246 27.2165 26.9298 27.2699 27.2389 27.3024C27.7631 27.4866 28.3901 27.4866 28.9593 27.4943C30.1457 27.5105 31.3732 27.5019 32.5274 27.2251C34.1246 26.8413 35.3218 25.8705 36.2617 24.7193C36.7273 24.2707 37.1723 23.7877 37.5558 23.129C38.0233 22.3262 38.1426 21.4117 38.3108 20.5297C38.4781 19.6534 38.7079 18.7619 38.6825 17.8474C38.6561 16.9138 38.438 16.0251 38.2717 15.1288C38.1935 14.7059 38.126 14.2696 38.0174 13.8353C38.1045 13.759 38.1827 13.6835 38.2306 13.6454C38.3901 13.5174 38.3979 13.4249 38.9622 13.1824C39.4259 12.9838 39.7164 13.2129 39.9423 13.3399C40.4186 13.6072 40.5702 13.9852 40.6289 14.3928C40.6309 14.4081 40.6309 14.4252 40.6309 14.4443L40.6094 14.5503C40.6142 14.5675 40.6182 14.5847 40.6221 14.6018C40.6123 14.7517 40.6015 14.9579 40.6377 15.2118C40.6446 15.2595 40.6563 15.3101 40.669 15.3626C40.6661 15.501 40.5966 15.6786 40.5996 15.8132L40.624 16.0948L40.6426 16.6971V17.0942L40.6798 17.2746L40.6426 18.4297V22.3988L40.6054 23.3629L40.5683 23.6512L40.6426 24.5532L40.6054 24.8415L40.5888 25.7016C40.5888 26.0987 40.6289 26.8194 40.8099 27.0361C40.9996 27.2632 41.3644 27.4236 41.697 27.4599H42.7866L43.082 27.4236C43.082 27.4236 43.3989 27.3883 43.7666 27.3492C44.1344 27.31 44.7369 27.4475 45.0587 27.4599C45.3805 27.4723 45.6416 27.3482 45.7522 27.2642C45.8627 27.1802 46.0436 26.9368 46.0837 26.7029C46.1023 26.5941 46.1502 26.1684 46.1874 25.9517V25.0334L46.2246 24.5647L46.2989 24.0234C46.3361 23.8068 46.2989 23.6989 46.2617 23.4822L46.2246 23.3018V22.5076L46.1688 21.5501L46.1512 21.2437L46.1884 20.9908V20.6662L46.1512 19.9446L46.1688 19.5551L46.1884 19.1513V19.0788C46.2627 18.8621 46.2979 18.6559 46.2989 18.3571L46.3175 17.9495L46.4094 17.455L46.5943 17.0579L46.8535 16.4442L46.964 16.0833L47.4443 15.4342L47.6291 15.1459L48.2209 14.4968L48.5162 14.3164L49.4405 13.883L50.402 13.6301L50.7561 13.4859L51.1209 13.4096L51.475 13.4182C51.919 13.3819 52.1264 13.2597 52.2115 13.1709C52.368 13.0087 52.455 12.7882 52.455 12.7882C52.4922 12.644 52.5088 12.5113 52.5088 12.3672V11.6455L52.4716 11.2122L52.4345 10.2738L52.4335 10.2729Z" fill="#5377FC"/>
<path d="M27.4296 8.8906C27.6575 8.75982 27.9392 8.69491 28.1172 8.51736C28.2952 8.33981 28.3588 8.05917 28.4693 7.83389C28.5798 7.60861 28.7657 7.42151 28.8156 7.18764C28.8654 6.95378 28.7715 6.697 28.7803 6.45645C28.7901 6.16626 28.8948 5.86652 28.8439 5.5792C28.7931 5.29187 28.5935 5.05132 28.4595 4.7869C28.3226 4.51581 28.2258 4.19221 27.9891 3.97743C27.7524 3.76265 27.4296 3.69965 27.1244 3.58701C26.8193 3.47437 26.4857 3.30159 26.1493 3.31687C25.7942 3.33309 25.4998 3.53451 25.2553 3.74547C24.5648 4.34207 24.0571 5.06373 23.9378 5.87607C23.8185 6.69413 24.1031 7.53034 24.5775 8.28731C24.8602 8.73787 25.2925 9.13783 25.851 9.25047C26.3703 9.35547 26.9249 9.17888 27.4296 8.88964V8.8906Z" fill="white"/>
<path d="M28.2081 4.46907C27.8394 4.0462 27.0462 4.03283 26.5376 4.33352C26.0299 4.63421 25.7678 5.15923 25.6485 5.67565C25.4538 6.51949 25.5927 7.44447 26.1845 8.1413C26.429 8.42863 26.7909 8.68732 27.2085 8.67586C27.5117 8.66727 27.9793 8.51645 28.172 8.31694C28.3637 8.11744 28.4918 7.93511 28.5984 7.69361C28.8517 7.11991 28.8556 6.45458 28.838 5.8427C28.8194 5.22986 28.5515 4.6008 27.9959 4.21134" fill="black"/>
<path d="M33.6004 8.8906C33.8283 8.75982 34.1099 8.69491 34.288 8.51736C34.466 8.33981 34.5295 8.05917 34.6401 7.83389C34.7506 7.60861 34.9364 7.42151 34.9863 7.18764C35.0362 6.95378 34.9423 6.697 34.9511 6.45645C34.9609 6.16626 35.0655 5.86652 35.0147 5.5792C34.9638 5.29187 34.7643 5.05132 34.6303 4.7869C34.4934 4.51581 34.3965 4.19221 34.1598 3.97743C33.9231 3.76265 33.6004 3.69965 33.2952 3.58701C32.99 3.47437 32.6565 3.30159 32.32 3.31687C31.965 3.33309 31.6706 3.53451 31.4261 3.74547C30.7355 4.34207 30.2279 5.06373 30.1086 5.87607C29.9892 6.69413 30.2739 7.53034 30.7482 8.28731C31.0309 8.73787 31.4632 9.13783 32.0217 9.25047C32.5411 9.35547 33.0957 9.17888 33.6004 8.88964V8.8906Z" fill="white"/>
<path d="M34.3789 4.46907C34.0102 4.0462 33.217 4.03283 32.7084 4.33352C32.2007 4.63421 31.9386 5.15923 31.8193 5.67565C31.6246 6.51949 31.7635 7.44447 32.3553 8.1413C32.5998 8.42863 32.9617 8.68732 33.3793 8.67586C33.6825 8.66727 34.1628 8.57372 34.3545 8.37326C34.5462 8.1728 34.5863 8.10121 34.6929 7.8597C34.9462 7.28601 35.0254 6.45362 35.0078 5.84174C34.9902 5.22986 34.7213 4.59985 34.1657 4.21038" fill="black"/>
<path d="M30.2318 4.94919C29.779 6.00304 29.8621 7.21247 30.4108 8.21764C30.6426 8.64242 30.9771 8.98702 31.427 9.19512C31.8711 9.40035 32.365 9.47385 32.8521 9.40608C33.3813 9.33353 33.8596 9.07961 34.2547 8.73406C34.687 8.35509 34.9677 7.85872 35.0998 7.30793C35.3639 6.20636 35.2171 4.90623 34.4171 4.04235C34.02 3.61279 33.4761 3.31974 32.8912 3.22428C32.3063 3.12883 31.7019 3.18896 31.249 3.56793C31.0573 3.72925 31.3361 3.99844 31.5268 3.83903C31.8496 3.56888 32.3269 3.53261 32.7308 3.58511C33.1837 3.64429 33.616 3.83425 33.9554 4.13399C34.7389 4.82605 34.9198 5.91521 34.7809 6.89842C34.7115 7.38907 34.5384 7.87304 34.198 8.24818C33.8869 8.59087 33.4771 8.86865 33.0213 8.98511C32.2526 9.18271 31.3263 8.92306 30.8852 8.25009C30.2602 7.29648 30.1663 6.09086 30.6123 5.05228C30.6534 4.95683 30.5683 4.84132 30.4754 4.81651C30.3619 4.78596 30.2749 4.85469 30.2338 4.95015L30.2318 4.94919Z" fill="black"/>
<path d="M24.061 4.94918C23.6082 6.00302 23.6913 7.21246 24.24 8.21762C24.4718 8.64241 24.8063 8.98701 25.2563 9.1951C25.7062 9.4032 26.1943 9.47384 26.6813 9.40606C27.2105 9.33352 27.6888 9.0796 28.0839 8.73405C28.5162 8.35508 28.797 7.85871 28.929 7.30792C29.1931 6.20635 29.0464 4.90622 28.2463 4.04234C27.8492 3.61278 27.3054 3.31973 26.7205 3.22427C26.1512 3.13168 25.5311 3.18895 25.0783 3.56792C24.8866 3.72924 25.1653 3.99843 25.356 3.83901C25.6788 3.56887 26.1561 3.5326 26.5601 3.5851C27.0129 3.64428 27.4452 3.83424 27.7846 4.13397C28.5681 4.82604 28.749 5.9152 28.6101 6.89841C28.5407 7.38906 28.3676 7.87302 28.0272 8.24817C27.7162 8.59086 27.3063 8.86864 26.8506 8.9851C26.0818 9.18269 25.1555 8.92305 24.7144 8.25008C24.0894 7.29646 23.9955 6.09084 24.4415 5.05227C24.4826 4.95681 24.3975 4.84131 24.3046 4.81649C24.1911 4.78595 24.1041 4.85467 24.063 4.95013L24.061 4.94918Z" fill="black"/>
<path d="M57.3836 6.05082C57.188 6.24174 56.8945 6.14628 56.6989 6.14628H56.7967C55.4274 6.33719 54.2537 5.09625 54.2537 3.85531V3.95077C54.1559 2.61437 55.3296 1.46889 56.6011 1.46889H56.5033C57.3836 1.46889 58.1661 1.85072 58.6551 2.51892L58.5573 2.42346C58.9485 2.80529 59.0463 3.37803 58.8507 3.85531V3.75986C58.9485 4.14168 58.6551 4.23714 58.3617 4.3326C58.1661 4.42805 57.9704 4.14168 57.7748 4.23714H57.8726C57.7748 4.14168 57.677 4.14168 57.5792 4.14168H57.677C57.188 3.95077 56.3077 3.6644 56.4055 2.9962C56.4055 2.90074 56.5033 2.90074 56.5033 2.80529C56.9924 2.70983 57.2858 2.9962 57.3836 3.37803V4.04623C57.2858 4.23714 57.188 4.42805 56.9924 4.52351C56.8945 4.61897 56.6989 4.61897 56.6011 4.71443C56.2099 4.80988 55.8186 4.52351 55.5252 4.23714V4.3326C55.4274 3.75986 55.0362 3.18711 54.4493 3.28257C54.3515 3.75986 54.4493 4.23714 54.6449 4.61897C55.0362 5.28717 55.8186 5.66899 56.6011 5.57354C57.4814 5.47808 58.1661 4.90534 58.3617 4.04623C58.4595 3.37803 58.3617 2.70983 57.8726 2.23254C57.5792 1.94617 57.2858 1.94617 56.8945 1.85072C56.5033 1.85072 56.2099 2.13709 55.9165 2.328C55.623 2.70983 55.3296 3.18711 55.623 3.75986C56.1121 4.71443 56.9924 5.28717 58.0683 5.57354C58.5573 5.66899 59.0463 5.57354 59.4376 5.19171C60.3179 4.14168 60.1222 2.51892 59.1442 1.56435C58.1661 0.609776 56.7967 0.227948 55.5252 0.705233C53.6668 1.37343 52.6887 3.47348 53.569 5.28717C54.1559 6.43265 55.4274 7.19631 56.7967 7.19631C57.2858 7.19631 57.9704 6.62356 57.5792 6.05082H57.3836Z" fill="#FFC240"/>
<path d="M59.2165 5.16218C59.1989 5.21086 59.1794 5.25763 59.1579 5.3025C59.0923 5.2815 59.0151 5.27863 58.927 5.30536C58.4752 5.44378 58.1837 5.8046 57.7553 5.96974C57.7416 5.97547 57.7269 5.97929 57.7132 5.98406C57.4863 6.02606 57.2496 6.03752 57.0149 6.03084C56.9386 6.02893 56.8642 6.02224 56.7909 6.01365C56.5513 5.96879 56.3146 5.89815 56.0915 5.83419C56.0475 5.82178 56.0074 5.81797 55.9683 5.81892C55.624 5.71296 55.2827 5.60032 54.9159 5.56787C54.5374 5.53541 54.4552 5.98979 54.6391 6.21984C55.2797 7.01977 56.8075 7.1095 57.7553 6.99304C58.751 6.87086 59.6342 6.30957 59.9716 5.36455C60.1379 4.89967 59.3818 4.69921 59.2175 5.16122L59.2165 5.16218Z" fill="#FFC240"/>
</g>
<defs>
<clipPath id="clip0_1951_12340">
<rect width="60" height="27" fill="white" transform="translate(0 0.5)"/>
</clipPath>
</defs>
</svg>
