<svg xmlns="http://www.w3.org/2000/svg" width="24" height="24" viewBox="0 0 24 24" fill="none">
	<path d="M7.20002 8.7999H4.80003C3.47454 8.7999 2.40002 9.87442 2.40002 11.1999C2.40002 12.5254 2.40002 17.8744 2.40002 19.1999C2.40002 20.5254 3.47454 21.5999 4.80002 21.5999C4.80002 21.5999 11.4745 21.5999 12.8 21.5999C14.1255 21.5999 15.2 20.5254 15.2 19.1999V16.1999M19.2 2.3999L11.2 2.3999C9.87454 2.3999 8.80003 3.47442 8.80002 4.7999C8.80002 6.12539 8.80003 11.4744 8.80002 12.7999C8.80002 14.1254 9.87454 15.1999 11.2 15.1999C11.2 15.1999 17.8745 15.1999 19.2 15.1999C20.5255 15.1999 21.6 14.1254 21.6 12.7999V4.7999C21.6 3.47442 20.5255 2.3999 19.2 2.3999Z" stroke="black" stroke-linecap="round" stroke-linejoin="round"/>
</svg>