<svg width="24" height="24" viewBox="0 0 24 24" fill="none" xmlns="http://www.w3.org/2000/svg">
<path d="M4.60147 16.4759L3.78077 15.9046L3.78077 15.9046L4.60147 16.4759ZM5.69156 13.1034L4.69156 13.0922V13.1034H5.69156ZM5.71444 11.0643L6.71444 11.0755V11.0643H5.71444ZM19.4065 16.4923L20.2382 15.9371L20.2382 15.9371L19.4065 16.4923ZM18.3575 13.1034L17.3575 13.0916V13.1034H18.3575ZM18.3803 11.1653L19.3803 11.1771V11.1653H18.3803ZM10.124 19.3691C9.69173 19.0253 9.06264 19.0971 8.71889 19.5293C8.37513 19.9616 8.44688 20.5907 8.87914 20.9344L10.124 19.3691ZM15.123 20.9344C15.5553 20.5907 15.6271 19.9616 15.2833 19.5293C14.9395 19.0971 14.3105 19.0253 13.8782 19.3691L15.123 20.9344ZM3.06525 6.02391C2.86902 6.54016 3.12845 7.11774 3.6447 7.31396C4.16095 7.51019 4.73853 7.25076 4.93475 6.73451L3.06525 6.02391ZM7.31024 3.86947C7.79043 3.59665 7.95854 2.98621 7.68572 2.50601C7.41289 2.02582 6.80245 1.85771 6.32226 2.13053L7.31024 3.86947ZM17.6674 2.14511C17.1902 1.86706 16.578 2.02849 16.2999 2.50567C16.0219 2.98286 16.1833 3.5951 16.6605 3.87315L17.6674 2.14511ZM19.0616 6.7157C19.2526 7.23393 19.8274 7.49928 20.3457 7.30837C20.8639 7.11746 21.1293 6.54258 20.9384 6.02434L19.0616 6.7157ZM5.42217 17.0473C6.05994 16.1312 6.69156 14.7668 6.69156 13.1034H4.69156C4.69156 14.2544 4.25239 15.2271 3.78077 15.9046L5.42217 17.0473ZM6.6915 13.1146L6.71438 11.0755L4.7145 11.0531L4.69162 13.0922L6.6915 13.1146ZM20.2382 15.9371C19.7861 15.2599 19.3575 14.2752 19.3575 13.1034H17.3575C17.3575 14.7653 17.9626 16.1305 18.5748 17.0476L20.2382 15.9371ZM19.3574 13.1152L19.3803 11.1771L17.3804 11.1535L17.3575 13.0916L19.3574 13.1152ZM19.3803 11.1653C19.3803 6.85267 16.1569 3.20465 12.0011 3.20465V5.20465C14.8917 5.20465 17.3803 7.78945 17.3803 11.1653H19.3803ZM19.0248 18.4373C19.7934 18.4373 20.2235 17.858 20.3798 17.4573C20.5415 17.0428 20.5787 16.4471 20.2382 15.9371L18.5748 17.0475C18.5161 16.9596 18.5023 16.8805 18.5001 16.8374C18.4979 16.7948 18.5047 16.7608 18.5166 16.7305C18.5276 16.7023 18.5569 16.6419 18.6309 16.5786C18.7124 16.5087 18.8498 16.4373 19.0248 16.4373V18.4373ZM6.71444 11.0643C6.71444 7.74421 9.16167 5.20465 12.0011 5.20465V3.20465C7.89647 3.20465 4.71444 6.80743 4.71444 11.0643H6.71444ZM4.97833 16.4373C5.15701 16.4373 5.29585 16.5114 5.37667 16.582C5.44973 16.6458 5.47746 16.7054 5.48736 16.7315C5.49812 16.76 5.50459 16.7925 5.50192 16.8344C5.49923 16.8768 5.48455 16.9577 5.42217 17.0473L3.78077 15.9046C3.4243 16.4166 3.45904 17.0224 3.61677 17.4393C3.76862 17.8406 4.19715 18.4373 4.97833 18.4373V16.4373ZM19.0248 16.4373H4.97833V18.4373H19.0248V16.4373ZM12.0011 20C11.2633 20 10.6076 19.7536 10.124 19.3691L8.87914 20.9344C9.72218 21.6048 10.8183 22 12.0011 22V20ZM13.8782 19.3691C13.3946 19.7536 12.7389 20 12.0011 20V22C13.1839 22 14.28 21.6048 15.123 20.9344L13.8782 19.3691ZM4.93475 6.73451C5.40847 5.48821 6.24648 4.47384 7.31024 3.86947L6.32226 2.13053C4.81302 2.988 3.6867 4.38893 3.06525 6.02391L4.93475 6.73451ZM16.6605 3.87315C17.7588 4.51314 18.6172 5.50924 19.0616 6.7157L20.9384 6.02434C20.3274 4.36602 19.1526 3.01052 17.6674 2.14511L16.6605 3.87315Z" fill="#061032"/>
</svg>
