<svg width="24" height="24" viewBox="0 0 24 24" fill="none" xmlns="http://www.w3.org/2000/svg">
<path d="M16.9999 8C16.7347 8 16.4804 8.10536 16.2928 8.2929C16.1053 8.48043 15.9999 8.73479 15.9999 9V14.59L7.70994 6.29C7.52164 6.1017 7.26624 5.99591 6.99994 5.99591C6.73364 5.99591 6.47825 6.1017 6.28994 6.29C6.10164 6.47831 5.99585 6.7337 5.99585 7C5.99585 7.2663 6.10164 7.5217 6.28994 7.71L14.5899 16H8.99994C8.73472 16 8.48037 16.1054 8.29283 16.2929C8.1053 16.4804 7.99994 16.7348 7.99994 17C7.99994 17.2652 8.1053 17.5196 8.29283 17.7071C8.48037 17.8946 8.73472 18 8.99994 18H16.9999C17.2652 18 17.5195 17.8946 17.707 17.7071C17.8946 17.5196 17.9999 17.2652 17.9999 17V9C17.9999 8.73479 17.8946 8.48043 17.707 8.2929C17.5195 8.10536 17.2652 8 16.9999 8Z" fill="#061032"/>
</svg>
