<svg width="24" height="24" viewBox="0 0 24 24" fill="none" xmlns="http://www.w3.org/2000/svg">
<path d="M5 11H16.86L13.23 6.64C13.0603 6.43578 12.9786 6.1725 13.003 5.90808C13.0274 5.64365 13.1558 5.39974 13.36 5.23C13.5642 5.06026 13.8275 4.9786 14.0919 5.00298C14.3563 5.02736 14.6003 5.15578 14.77 5.36L19.77 11.36C19.8036 11.4077 19.8337 11.4579 19.86 11.51C19.86 11.56 19.86 11.59 19.93 11.64C19.9753 11.7547 19.9991 11.8767 20 12C19.9991 12.1233 19.9753 12.2453 19.93 12.36C19.93 12.41 19.93 12.44 19.86 12.49C19.8337 12.5421 19.8036 12.5923 19.77 12.64L14.77 18.64C14.676 18.7529 14.5582 18.8437 14.4252 18.9059C14.2921 18.9681 14.1469 19.0002 14 19C13.7663 19.0005 13.5399 18.9191 13.36 18.77C13.2587 18.6861 13.175 18.583 13.1137 18.4666C13.0523 18.3503 13.0145 18.2229 13.0025 18.092C12.9904 17.961 13.0043 17.8289 13.0433 17.7033C13.0824 17.5777 13.1458 17.4611 13.23 17.36L16.86 13H5C4.73478 13 4.48043 12.8946 4.29289 12.7071C4.10536 12.5196 4 12.2652 4 12C4 11.7348 4.10536 11.4804 4.29289 11.2929C4.48043 11.1054 4.73478 11 5 11Z" fill="#061032"/>
</svg>
