<svg width="24" height="24" viewBox="0 0 24 24" fill="none" xmlns="http://www.w3.org/2000/svg">
<path d="M15.122 15.0089C15.5412 15.1487 15.9942 14.9221 16.1339 14.503C16.2737 14.0838 16.0471 13.6308 15.628 13.4911L15.122 15.0089ZM12 13.125H11.2C11.2 13.4693 11.4203 13.7751 11.747 13.8839L12 13.125ZM12.8 8.42087C12.8 7.97904 12.4418 7.62087 12 7.62087C11.5582 7.62087 11.2 7.97904 11.2 8.42087H12.8ZM15.628 13.4911L12.253 12.3661L11.747 13.8839L15.122 15.0089L15.628 13.4911ZM12.8 13.125V8.42087H11.2V13.125H12.8ZM20.2 12C20.2 16.5287 16.5287 20.2 12 20.2V21.8C17.4124 21.8 21.8 17.4124 21.8 12H20.2ZM12 20.2C7.47126 20.2 3.8 16.5287 3.8 12H2.2C2.2 17.4124 6.58761 21.8 12 21.8V20.2ZM3.8 12C3.8 7.47126 7.47126 3.8 12 3.8V2.2C6.58761 2.2 2.2 6.58761 2.2 12H3.8ZM12 3.8C16.5287 3.8 20.2 7.47126 20.2 12H21.8C21.8 6.58761 17.4124 2.2 12 2.2V3.8Z" fill="#061032"/>
</svg>
