<svg width="24" height="24" viewBox="0 0 24 24" fill="none" xmlns="http://www.w3.org/2000/svg">
<rect x="3" y="3" width="17" height="18" rx="2" stroke="#061032" stroke-width="1.8" stroke-linejoin="round"/>
<path fill-rule="evenodd" clip-rule="evenodd" d="M12.1748 8.77488C12.1748 8.23647 12.6113 7.8 13.1497 7.8C13.6881 7.8 14.1246 8.23647 14.1246 8.77488C14.1246 9.31329 13.6881 9.74975 13.1497 9.74975C12.6113 9.74975 12.1748 9.31329 12.1748 8.77488ZM13.1497 6C11.6172 6 10.3748 7.24235 10.3748 8.77488C10.3748 10.3074 11.6172 11.5498 13.1497 11.5498C14.6822 11.5498 15.9246 10.3074 15.9246 8.77488C15.9246 7.24235 14.6822 6 13.1497 6ZM10.3 16.8994C10.3 16.4553 10.4792 15.7105 10.9403 15.0958C11.3726 14.5193 12.0532 14.0496 13.1498 14.0496C14.2463 14.0496 14.9269 14.5193 15.3593 15.0958C15.8203 15.7105 15.9995 16.4553 15.9995 16.8994C15.9995 17.3964 16.4025 17.7994 16.8995 17.7994C17.3966 17.7994 17.7995 17.3964 17.7995 16.8994C17.7995 16.0935 17.51 14.9634 16.7992 14.0158C16.0598 13.0298 14.8655 12.2496 13.1498 12.2496C11.434 12.2496 10.2397 13.0298 9.50026 14.0158C8.78949 14.9634 8.5 16.0935 8.5 16.8994C8.5 17.3964 8.90294 17.7994 9.4 17.7994C9.89706 17.7994 10.3 17.3964 10.3 16.8994Z" fill="#061032"/>
<line x1="5.9" y1="3" x2="5.9" y2="21" stroke="#061032" stroke-width="1.8"/>
<rect x="20" y="6" width="2" height="5" rx="1" fill="#061032"/>
<rect x="20" y="13" width="2" height="5" rx="1" fill="#061032"/>
</svg>
