<svg width="24" height="24" viewBox="0 0 24 24" fill="none" xmlns="http://www.w3.org/2000/svg">
<rect x="3.5" y="3" width="17" height="18" rx="2" stroke="#061032" stroke-width="1.8" stroke-linejoin="round"/>
<path d="M2 8H5" stroke="#061032" stroke-width="1.8" stroke-linecap="round"/>
<path d="M2 12H5" stroke="#061032" stroke-width="1.8" stroke-linecap="round"/>
<path d="M2 16H5" stroke="#061032" stroke-width="1.8" stroke-linecap="round"/>
<path fill-rule="evenodd" clip-rule="evenodd" d="M11.6748 8.77488C11.6748 8.23647 12.1113 7.8 12.6497 7.8C13.1881 7.8 13.6246 8.23647 13.6246 8.77488C13.6246 9.31329 13.1881 9.74975 12.6497 9.74975C12.1113 9.74975 11.6748 9.31329 11.6748 8.77488ZM12.6497 6C11.1172 6 9.87484 7.24235 9.87484 8.77488C9.87484 10.3074 11.1172 11.5498 12.6497 11.5498C14.1822 11.5498 15.4246 10.3074 15.4246 8.77488C15.4246 7.24235 14.1822 6 12.6497 6ZM9.8 16.8994C9.8 16.4553 9.97923 15.7105 10.4403 15.0958C10.8726 14.5193 11.5532 14.0496 12.6498 14.0496C13.7463 14.0496 14.4269 14.5193 14.8593 15.0958C15.3203 15.7105 15.4995 16.4553 15.4995 16.8994C15.4995 17.3964 15.9025 17.7994 16.3995 17.7994C16.8966 17.7994 17.2995 17.3964 17.2995 16.8994C17.2995 16.0935 17.01 14.9634 16.2992 14.0158C15.5598 13.0298 14.3655 12.2496 12.6498 12.2496C10.934 12.2496 9.73971 13.0298 9.00026 14.0158C8.28949 14.9634 8 16.0935 8 16.8994C8 17.3964 8.40294 17.7994 8.9 17.7994C9.39706 17.7994 9.8 17.3964 9.8 16.8994Z" fill="#061032"/>
</svg>
