<svg width="24" height="24" viewBox="0 0 24 24" fill="none" xmlns="http://www.w3.org/2000/svg">
<circle cx="8.95398" cy="7" r="3" stroke="#061032" stroke-width="1.6"/>
<path d="M2.95398 20C2.95398 18 4.45398 14 8.95398 14C13.454 14 14.954 18 14.954 20" stroke="#061032" stroke-width="1.6" stroke-linecap="round"/>
<circle cx="16.8848" cy="10" r="1.93096" stroke="#061032" stroke-width="1.6"/>
<path fill-rule="evenodd" clip-rule="evenodd" d="M15.8671 16.0179C16.1624 15.9235 16.4995 15.869 16.8849 15.869C18.058 15.869 18.7951 16.3747 19.262 16.9973C19.7545 17.6538 19.9468 18.4481 19.9468 18.931C19.9468 19.3728 20.305 19.731 20.7468 19.731C21.1887 19.731 21.5468 19.3728 21.5468 18.931C21.5468 18.1265 21.2565 16.9898 20.542 16.0373C19.8021 15.0507 18.6083 14.269 16.8849 14.269C16.139 14.269 15.4899 14.4157 14.9329 14.6642C15.0404 14.7904 15.1433 14.9191 15.2414 15.05C15.4763 15.3631 15.6843 15.6878 15.8671 16.0179Z" fill="#061032"/>
</svg>
