<svg width="24" height="24" viewBox="0 0 24 24" fill="none" xmlns="http://www.w3.org/2000/svg">
<circle cx="12.0478" cy="7.73799" r="2.55721" stroke="#061032" stroke-width="1.6"/>
<path d="M6.93347 18.8192C6.93347 17.1144 8.21207 13.7048 12.0479 13.7048C15.8837 13.7048 17.1623 17.1144 17.1623 18.8192" stroke="#061032" stroke-width="1.6" stroke-linecap="round"/>
<circle cx="18.8079" cy="10.2952" r="1.64596" stroke="#061032" stroke-width="1.6"/>
<path fill-rule="evenodd" clip-rule="evenodd" d="M18.294 15.4592C18.4521 15.4312 18.6231 15.416 18.808 15.416C19.7673 15.416 20.3619 15.8266 20.7398 16.3305C21.1432 16.8683 21.2999 17.5201 21.2999 17.9079C21.2999 18.3497 21.6581 18.7079 22.0999 18.7079C22.5417 18.7079 22.8999 18.3497 22.8999 17.9079C22.8999 17.1985 22.6452 16.2043 22.0198 15.3705C21.369 14.5027 20.3177 13.816 18.808 13.816C18.2659 13.816 17.7812 13.9048 17.3521 14.0599C17.4538 14.1784 17.5509 14.2995 17.6433 14.4227C17.8937 14.7566 18.1098 15.1051 18.294 15.4592Z" fill="#061032"/>
<circle cx="1.64596" cy="1.64596" r="1.64596" transform="matrix(-1 0 0 1 6.93347 8.64923)" stroke="#061032" stroke-width="1.6"/>
<path fill-rule="evenodd" clip-rule="evenodd" d="M5.80145 15.4592C5.64331 15.4312 5.47237 15.416 5.28745 15.416C4.32816 15.416 3.73351 15.8266 3.35564 16.3305C2.95228 16.8683 2.79554 17.5201 2.79554 17.9079C2.79554 18.3497 2.43736 18.7079 1.99554 18.7079C1.55371 18.7079 1.19554 18.3497 1.19554 17.9079C1.19554 17.1985 1.45029 16.2043 2.07564 15.3705C2.72649 14.5027 3.7778 13.816 5.28745 13.816C5.82955 13.816 6.31427 13.9048 6.74335 14.0599C6.64161 14.1784 6.54455 14.2995 6.45214 14.4227C6.20173 14.7566 5.98564 15.1051 5.80145 15.4592Z" fill="#061032"/>
</svg>
