<svg width="24" height="24" viewBox="0 0 24 24" fill="none" xmlns="http://www.w3.org/2000/svg">
<circle cx="12.0478" cy="7.73799" r="2.55721" stroke="#061032" stroke-width="1.6"/>
<path d="M6.93347 18.8192C6.93347 17.1144 8.21207 13.7048 12.0479 13.7048C15.8837 13.7048 17.1623 17.1144 17.1623 18.8192" stroke="#061032" stroke-width="1.6" stroke-linecap="round"/>
<circle cx="18.8079" cy="10.2952" r="1.64596" stroke="#061032" stroke-width="1.6"/>
<path fill-rule="evenodd" clip-rule="evenodd" d="M18.2941 15.4592C18.4522 15.4312 18.6232 15.416 18.8081 15.416C19.7674 15.416 20.362 15.8266 20.7399 16.3305C21.1433 16.8683 21.3 17.5201 21.3 17.9079C21.3 18.3497 21.6582 18.7079 22.1 18.7079C22.5418 18.7079 22.9 18.3497 22.9 17.9079C22.9 17.1985 22.6452 16.2043 22.0199 15.3705C21.369 14.5027 20.3177 13.816 18.8081 13.816C18.266 13.816 17.7813 13.9048 17.3522 14.0599C17.4539 14.1784 17.551 14.2995 17.6434 14.4227C17.8938 14.7566 18.1099 15.1051 18.2941 15.4592Z" fill="#061032"/>
<circle cx="1.64596" cy="1.64596" r="1.64596" transform="matrix(-1 0 0 1 6.93347 8.64923)" stroke="#061032" stroke-width="1.6"/>
<path fill-rule="evenodd" clip-rule="evenodd" d="M5.80138 15.4592C5.64324 15.4312 5.4723 15.416 5.28738 15.416C4.32809 15.416 3.73345 15.8266 3.35557 16.3305C2.95221 16.8683 2.79547 17.5201 2.79547 17.9079C2.79547 18.3497 2.4373 18.7079 1.99547 18.7079C1.55364 18.7079 1.19547 18.3497 1.19547 17.9079C1.19547 17.1985 1.45022 16.2043 2.07557 15.3705C2.72642 14.5027 3.77774 13.816 5.28738 13.816C5.82948 13.816 6.3142 13.9048 6.74329 14.0599C6.64154 14.1784 6.54448 14.2995 6.45208 14.4227C6.20166 14.7566 5.98557 15.1051 5.80138 15.4592Z" fill="#061032"/>
<path d="M18.9999 0.917786L18.9999 5.08219M21.0821 2.99999L16.9177 2.99999" stroke="#061032" stroke-width="1.6" stroke-linecap="round"/>
</svg>
