<svg width="24" height="24" viewBox="0 0 24 24" fill="none" xmlns="http://www.w3.org/2000/svg">
<path d="M8.46692 12.8824L7.94977 12.2721L7.94976 12.2721L8.46692 12.8824ZM8.51973 12.8319L7.94974 12.2705L7.94911 12.2711L8.51973 12.8319ZM6.29801 14.7201L5.78085 14.1098L5.78085 14.1098L6.29801 14.7201ZM6.1792 14.8452L6.83585 15.3022L6.83585 15.3022L6.1792 14.8452ZM17.6926 12.9592L17.1385 13.5363L17.6926 12.9592ZM15.8414 11.1822L15.2874 11.7593L15.2874 11.7593L15.8414 11.1822ZM15.154 11.1773L14.6082 10.5925L14.6061 10.5944L15.154 11.1773ZM11.7253 14.3998L12.2712 14.9847L12.2732 14.9828L11.7253 14.3998ZM11.0273 14.3846L10.4545 14.9431L10.4557 14.9443L11.0273 14.3846ZM11.0183 14.3753L10.445 14.9333L10.4455 14.9338L11.0183 14.3753ZM10.9693 14.3278L11.4931 13.7231L11.4931 13.7231L10.9693 14.3278ZM9.29897 12.881L9.82274 12.2763L9.82274 12.2763L9.29897 12.881ZM9.24978 12.8332L9.82329 12.2755L9.82275 12.2749L9.24978 12.8332ZM9.24097 12.8242L9.81394 12.2659L9.81286 12.2648L9.24097 12.8242ZM8.52922 12.8222L7.96037 12.2597L7.95923 12.2609L8.52922 12.8222ZM16.3196 6.59979V5.79979C15.8777 5.79979 15.5196 6.15797 15.5196 6.59979H16.3196ZM16.6627 6.59979H17.4627C17.4627 6.15797 17.1046 5.79979 16.6627 5.79979V6.59979ZM16.6627 6.89042V7.69042C17.1046 7.69042 17.4627 7.33225 17.4627 6.89042H16.6627ZM16.3196 6.89042H15.5196C15.5196 7.33225 15.8777 7.69042 16.3196 7.69042V6.89042ZM1.60002 5.99999V18H3.20002V5.99999H1.60002ZM6.00002 22.4H18V20.8H6.00002V22.4ZM22.4 18V5.99999H20.8V18H22.4ZM18 1.59999H6.00002V3.19999H18V1.59999ZM22.4 5.99999C22.4 3.56994 20.4301 1.59999 18 1.59999V3.19999C19.5464 3.19999 20.8 4.4536 20.8 5.99999H22.4ZM18 22.4C20.4301 22.4 22.4 20.43 22.4 18H20.8C20.8 19.5464 19.5464 20.8 18 20.8V22.4ZM1.60002 18C1.60002 20.43 3.56997 22.4 6.00002 22.4V20.8C4.45363 20.8 3.20002 19.5464 3.20002 18H1.60002ZM3.20002 5.99999C3.20002 4.4536 4.45363 3.19999 6.00002 3.19999V1.59999C3.56997 1.59999 1.60002 3.56994 1.60002 5.99999H3.20002ZM8.98407 13.4928C9.03518 13.4495 9.07756 13.4056 9.09034 13.3926L7.94911 12.2711C7.94458 12.2758 7.9419 12.2785 7.93947 12.2809C7.93722 12.2832 7.93629 12.2841 7.93619 12.2842C7.93579 12.2846 7.94086 12.2796 7.94977 12.2721L8.98407 13.4928ZM6.81518 15.3305L8.98408 13.4928L7.94976 12.2721L5.78085 14.1098L6.81518 15.3305ZM6.83585 15.3022C6.82287 15.3209 6.81231 15.3322 6.80855 15.3361C6.80506 15.3397 6.80593 15.3384 6.81518 15.3305L5.78085 14.1098C5.71383 14.1666 5.61267 14.2588 5.52256 14.3883L6.83585 15.3022ZM6.80002 15.4164C6.80002 15.3755 6.81261 15.3356 6.83585 15.3022L5.52256 14.3883C5.31329 14.689 5.20002 15.0476 5.20002 15.4164H6.80002ZM6.80002 17.5V15.4164H5.20002V17.5H6.80002ZM6.50002 17.2C6.66571 17.2 6.80002 17.3343 6.80002 17.5H5.20002C5.20002 18.218 5.78206 18.8 6.50002 18.8V17.2ZM17.5 17.2H6.50002V18.8H17.5V17.2ZM17.2 17.5C17.2 17.3343 17.3343 17.2 17.5 17.2V18.8C18.218 18.8 18.8 18.218 18.8 17.5H17.2ZM17.2 13.6806V17.5H18.8V13.6806H17.2ZM17.1385 13.5363C17.1778 13.574 17.2 13.6261 17.2 13.6806H18.8C18.8 13.1905 18.6002 12.7215 18.2466 12.3821L17.1385 13.5363ZM15.2874 11.7593L17.1385 13.5363L18.2466 12.3821L16.3955 10.605L15.2874 11.7593ZM15.6999 11.7622C15.5834 11.8709 15.4023 11.8696 15.2874 11.7593L16.3955 10.605C15.8975 10.127 15.1128 10.1215 14.6082 10.5925L15.6999 11.7622ZM12.2732 14.9828L15.7019 11.7603L14.6061 10.5944L11.1774 13.8169L12.2732 14.9828ZM10.4557 14.9443C10.9449 15.4439 11.751 15.4702 12.2711 14.9847L11.1794 13.815C11.2997 13.7027 11.4855 13.7091 11.5989 13.8249L10.4557 14.9443ZM10.4455 14.9338L10.4545 14.9431L11.6001 13.8261L11.5911 13.8168L10.4455 14.9338ZM10.4455 14.9325C10.4373 14.9253 10.4326 14.9206 10.433 14.921C10.4331 14.9211 10.4339 14.922 10.436 14.9241C10.4383 14.9264 10.4408 14.929 10.445 14.9333L11.5916 13.8174C11.5797 13.8052 11.5403 13.764 11.4931 13.7231L10.4455 14.9325ZM8.7752 13.4857L10.4455 14.9325L11.4931 13.7231L9.82274 12.2763L8.7752 13.4857ZM8.67627 13.391C8.6882 13.4032 8.72773 13.4446 8.77521 13.4857L9.82274 12.2763C9.83101 12.2835 9.83572 12.2881 9.83535 12.2878C9.83525 12.2877 9.83438 12.2868 9.83229 12.2847C9.83002 12.2824 9.82752 12.2798 9.82329 12.2755L8.67627 13.391ZM8.66801 13.3825L8.67681 13.3915L9.82275 12.2749L9.81394 12.2659L8.66801 13.3825ZM9.09807 13.3847C8.97939 13.5047 8.78727 13.5044 8.66909 13.3836L9.81286 12.2648C9.30545 11.746 8.46993 11.7444 7.96037 12.2597L9.09807 13.3847ZM9.08971 13.3932L9.0992 13.3836L7.95923 12.2609L7.94974 12.2705L9.08971 13.3932ZM16.3196 7.39979H16.6627V5.79979H16.3196V7.39979ZM15.8627 6.59979V6.89042H17.4627V6.59979H15.8627ZM16.6627 6.09042H16.3196V7.69042H16.6627V6.09042ZM17.1196 6.89042V6.59979H15.5196V6.89042H17.1196Z" fill="#061032"/>
</svg>
