<svg width="16" height="16" viewBox="0 0 16 16" fill="none" xmlns="http://www.w3.org/2000/svg">
<circle cx="8" cy="8" r="7.75" fill="#1573FE" stroke="white" stroke-width="0.5"/>
<g clip-path="url(#clip0_2174_10375)">
<path d="M12.1667 11.3362C12.1659 11.4457 12.1221 11.5504 12.0448 11.6278C11.9674 11.7052 11.8628 11.7491 11.7533 11.75H4.24667C4.13701 11.7499 4.03187 11.7062 3.95437 11.6287C3.87687 11.5511 3.83333 11.4459 3.83333 11.3362V10.9167H11.3333V6.04167L8 9.04167L3.83333 5.29167V4.66667C3.83333 4.55616 3.87723 4.45018 3.95537 4.37204C4.03351 4.2939 4.13949 4.25 4.25 4.25H11.75C11.8605 4.25 11.9665 4.2939 12.0446 4.37204C12.1228 4.45018 12.1667 4.55616 12.1667 4.66667V11.3362ZM4.8475 5.08333L8 7.92083L11.1525 5.08333H4.8475ZM3 9.25H6.33333V10.0833H3V9.25ZM3 7.16667H5.08333V8H3V7.16667Z" fill="white"/>
</g>
<defs>
<clipPath id="clip0_2174_10375">
<rect width="10" height="10" fill="white" transform="translate(3 3)"/>
</clipPath>
</defs>
</svg>
