<svg width="47" height="18" viewBox="0 0 47 18" fill="none" xmlns="http://www.w3.org/2000/svg">
<path d="M1 6.82474C0.734784 6.82474 0.48043 6.93009 0.292893 7.11763C0.105357 7.30517 0 7.55952 0 7.82474V10.0752C0 10.3404 0.105357 10.5948 0.292893 10.7823C0.48043 10.9698 0.734784 11.0752 1 11.0752C1.26522 11.0752 1.51957 10.9698 1.70711 10.7823C1.89464 10.5948 2 10.3404 2 10.0752V7.82474C2 7.55952 1.89464 7.30517 1.70711 7.11763C1.51957 6.93009 1.26522 6.82474 1 6.82474Z" fill="#061032"/>
<path d="M4.19995 3.08258C3.93473 3.08258 3.68038 3.18794 3.49284 3.37547C3.30531 3.56301 3.19995 3.81736 3.19995 4.08258V13.8174C3.19995 14.0826 3.30531 14.3369 3.49284 14.5245C3.68038 14.712 3.93473 14.8174 4.19995 14.8174C4.46517 14.8174 4.71952 14.712 4.90706 14.5245C5.09459 14.3369 5.19995 14.0826 5.19995 13.8174V4.08258C5.19995 3.81736 5.09459 3.56301 4.90706 3.37547C4.71952 3.18794 4.46517 3.08258 4.19995 3.08258Z" fill="#061032"/>
<path d="M7.3999 0.950485C7.13469 0.950485 6.88033 1.05584 6.6928 1.24338C6.50526 1.43091 6.3999 1.68527 6.3999 1.95049L6.3999 15.9495C6.3999 16.2147 6.50526 16.469 6.6928 16.6566C6.88033 16.8441 7.13469 16.9495 7.3999 16.9495C7.66512 16.9495 7.91947 16.8441 8.10701 16.6566C8.29455 16.469 8.3999 16.2147 8.3999 15.9495V1.95049C8.3999 1.68527 8.29455 1.43091 8.10701 1.24338C7.91947 1.05584 7.66512 0.950485 7.3999 0.950485Z" fill="#061032"/>
<path d="M10.6001 5.44997C10.3349 5.44997 10.0805 5.55532 9.89299 5.74286C9.70545 5.9304 9.6001 6.18475 9.6001 6.44997V11.45C9.6001 11.7152 9.70545 11.9695 9.89299 12.1571C10.0805 12.3446 10.3349 12.45 10.6001 12.45C10.8653 12.45 11.1197 12.3446 11.3072 12.1571C11.4947 11.9695 11.6001 11.7152 11.6001 11.45V6.44997C11.6001 6.18475 11.4947 5.9304 11.3072 5.74286C11.1197 5.55532 10.8653 5.44997 10.6001 5.44997Z" fill="#061032"/>
<path d="M13.8 3.69997C13.5348 3.69997 13.2805 3.80532 13.0929 3.99286C12.9054 4.1804 12.8 4.43475 12.8 4.69997V13.2C12.8 13.4652 12.9054 13.7195 13.0929 13.9071C13.2805 14.0946 13.5348 14.2 13.8 14.2C14.0653 14.2 14.3196 14.0946 14.5072 13.9071C14.6947 13.7195 14.8 13.4652 14.8 13.2V4.69997C14.8 4.43475 14.6947 4.1804 14.5072 3.99286C14.3196 3.80532 14.0653 3.69997 13.8 3.69997Z" fill="#061032"/>
<path d="M17 6.32106C16.7348 6.32106 16.4804 6.42642 16.2929 6.61395C16.1054 6.80149 16 7.05584 16 7.32106V10.5789C16 10.8441 16.1054 11.0984 16.2929 11.286C16.4804 11.4735 16.7348 11.5789 17 11.5789C17.2652 11.5789 17.5196 11.4735 17.7071 11.286C17.8946 11.0984 18 10.8441 18 10.5789V7.32106C18 7.05584 17.8946 6.80149 17.7071 6.61395C17.5196 6.42642 17.2652 6.32106 17 6.32106Z" fill="#061032"/>
<path d="M20.2 3.08258C19.9347 3.08258 19.6804 3.18794 19.4928 3.37547C19.3053 3.56301 19.2 3.81736 19.2 4.08258V13.8174C19.2 14.0826 19.3053 14.3369 19.4928 14.5245C19.6804 14.712 19.9347 14.8174 20.2 14.8174C20.4652 14.8174 20.7195 14.712 20.9071 14.5245C21.0946 14.3369 21.2 14.0826 21.2 13.8174V4.08258C21.2 3.81736 21.0946 3.56301 20.9071 3.37547C20.7195 3.18794 20.4652 3.08258 20.2 3.08258Z" fill="#061032"/>
<path d="M23.3999 0.949966C23.1347 0.949966 22.8803 1.05532 22.6928 1.24286C22.5053 1.4304 22.3999 1.68475 22.3999 1.94997V15.95C22.3999 16.2152 22.5053 16.4695 22.6928 16.6571C22.8803 16.8446 23.1347 16.95 23.3999 16.95C23.6651 16.95 23.9195 16.8446 24.107 16.6571C24.2945 16.4695 24.3999 16.2152 24.3999 15.95V1.94997C24.3999 1.68475 24.2945 1.4304 24.107 1.24286C23.9195 1.05532 23.6651 0.949966 23.3999 0.949966Z" fill="#061032"/>
<path d="M26.6001 4.14687C26.3349 4.14687 26.0805 4.25222 25.893 4.43976C25.7055 4.6273 25.6001 4.88165 25.6001 5.14687V12.7531C25.6001 13.0183 25.7055 13.2726 25.893 13.4602C26.0805 13.6477 26.3349 13.7531 26.6001 13.7531C26.8653 13.7531 27.1197 13.6477 27.3072 13.4602C27.4947 13.2726 27.6001 13.0183 27.6001 12.7531V5.14687C27.6001 4.88165 27.4947 4.6273 27.3072 4.43976C27.1197 4.25222 26.8653 4.14687 26.6001 4.14687Z" fill="#061032"/>
<path d="M29.8 5.44997C29.5348 5.44997 29.2805 5.55532 29.0929 5.74286C28.9054 5.9304 28.8 6.18475 28.8 6.44997V11.45C28.8 11.7152 28.9054 11.9695 29.0929 12.1571C29.2805 12.3446 29.5348 12.45 29.8 12.45C30.0653 12.45 30.3196 12.3446 30.5072 12.1571C30.6947 11.9695 30.8 11.7152 30.8 11.45V6.44997C30.8 6.18475 30.6947 5.9304 30.5072 5.74286C30.3196 5.55532 30.0653 5.44997 29.8 5.44997Z" fill="#061032"/>
<path d="M33 3.08258C32.7348 3.08258 32.4804 3.18794 32.2929 3.37547C32.1054 3.56301 32 3.81736 32 4.08258V13.8174C32 14.0826 32.1054 14.3369 32.2929 14.5245C32.4804 14.712 32.7348 14.8174 33 14.8174C33.2652 14.8174 33.5196 14.712 33.7071 14.5245C33.8946 14.3369 34 14.0826 34 13.8174V4.08258C34 3.81736 33.8946 3.56301 33.7071 3.37547C33.5196 3.18794 33.2652 3.08258 33 3.08258Z" fill="#061032"/>
<path d="M36.2 0.673126C35.9347 0.673126 35.6804 0.778483 35.4928 0.96602C35.3053 1.15356 35.2 1.40791 35.2 1.67313V16.2268C35.2 16.492 35.3053 16.7464 35.4928 16.9339C35.6804 17.1215 35.9347 17.2268 36.2 17.2268C36.4652 17.2268 36.7195 17.1215 36.9071 16.9339C37.0946 16.7464 37.2 16.492 37.2 16.2268V1.67313C37.2 1.40791 37.0946 1.15356 36.9071 0.96602C36.7195 0.778483 36.4652 0.673126 36.2 0.673126Z" fill="#061032"/>
<path d="M39.3999 5.44997C39.1347 5.44997 38.8803 5.55532 38.6928 5.74286C38.5053 5.9304 38.3999 6.18475 38.3999 6.44997V11.45C38.3999 11.7152 38.5053 11.9695 38.6928 12.1571C38.8803 12.3446 39.1347 12.45 39.3999 12.45C39.6651 12.45 39.9195 12.3446 40.107 12.1571C40.2945 11.9695 40.3999 11.7152 40.3999 11.45V6.44997C40.3999 6.18475 40.2945 5.9304 40.107 5.74286C39.9195 5.55532 39.6651 5.44997 39.3999 5.44997Z" fill="#061032"/>
<path d="M42.6001 3.69997C42.3349 3.69997 42.0805 3.80532 41.893 3.99286C41.7055 4.1804 41.6001 4.43475 41.6001 4.69997V13.2C41.6001 13.4652 41.7055 13.7195 41.893 13.9071C42.0805 14.0946 42.3349 14.2 42.6001 14.2C42.8653 14.2 43.1197 14.0946 43.3072 13.9071C43.4947 13.7195 43.6001 13.4652 43.6001 13.2V4.69997C43.6001 4.43475 43.4947 4.1804 43.3072 3.99286C43.1197 3.80532 42.8653 3.69997 42.6001 3.69997Z" fill="#061032"/>
<path d="M45.8 5.9458C45.5348 5.9458 45.2805 6.05116 45.0929 6.23869C44.9054 6.42623 44.8 6.68058 44.8 6.9458L44.8 10.9541C44.8 11.2193 44.9054 11.4737 45.0929 11.6612C45.2805 11.8488 45.5348 11.9541 45.8 11.9541C46.0653 11.9541 46.3196 11.8488 46.5072 11.6612C46.6947 11.4737 46.8 11.2193 46.8 10.9541V6.9458C46.8 6.68058 46.6947 6.42623 46.5072 6.23869C46.3196 6.05116 46.0653 5.9458 45.8 5.9458Z" fill="#061032"/>
</svg>
