<svg width="24" height="24" viewBox="0 0 24 24" fill="none" xmlns="http://www.w3.org/2000/svg">
<path d="M5.73869 11.1056C5.73869 7.15366 8.94206 3.95001 12.8936 3.95001C16.8452 3.95001 20.0486 7.15366 20.0486 11.1056C20.0486 12.1342 19.8315 13.1121 19.4408 13.9961L20.0499 18.2604L16.3957 17.3468C15.3606 17.929 14.1659 18.2611 12.8936 18.2611M3.9508 15.5778C3.9508 16.2207 4.08643 16.8319 4.33063 17.3843L3.94995 20.0496L6.2336 19.4786C6.88053 19.8424 7.62714 20.05 8.42221 20.05C10.8917 20.05 12.8936 18.0477 12.8936 15.5778C12.8936 13.1078 10.8917 11.1056 8.42221 11.1056C5.95272 11.1056 3.9508 13.1078 3.9508 15.5778Z" stroke="#061032" stroke-width="1.6" stroke-linecap="round" stroke-linejoin="round"/>
</svg>
