<svg width="24" height="24" viewBox="0 0 24 24" fill="none" xmlns="http://www.w3.org/2000/svg">
<path d="M9.34529 3.88221C9.92552 3.30198 10.7125 2.97601 11.533 2.97601C12.3536 2.97601 13.1406 3.30198 13.7208 3.88221C14.301 4.46243 14.627 5.24939 14.627 6.06996V9.18001M4.38602 11.2265C4.6359 12.9434 5.49558 14.513 6.80779 15.648C8.12 16.7831 9.797 17.4078 11.532 17.4078M11.532 17.4078C13.267 17.4078 14.944 16.7831 16.2562 15.648C17.5684 14.513 18.4281 12.9434 18.678 11.2265M11.532 17.4078V21.024M8.43909 8.05201V10.1952C8.43909 11.0158 8.76506 11.8027 9.34529 12.383C9.92552 12.9632 10.7125 13.2892 11.533 13.2892C12.058 13.2892 12.5693 13.1557 13.0214 12.9076M3.82202 2.97601L20.178 19.332" stroke="#061032" stroke-width="1.6" stroke-linecap="round" stroke-linejoin="round"/>
</svg>
