<svg width="24" height="24" viewBox="0 0 24 24" fill="none" xmlns="http://www.w3.org/2000/svg">
<path d="M15.5992 12.8094L15.1628 12.139L15.1516 12.1462L15.1407 12.1539L15.5992 12.8094ZM15.5992 11.4332L15.1249 12.0774L15.1606 12.1037L15.1989 12.1259L15.5992 11.4332ZM10.0838 7.37196L10.5582 6.72776L10.5356 6.71114L10.5119 6.69614L10.0838 7.37196ZM8.92754 7.97856L9.72766 7.97625L9.72737 7.96224L8.92754 7.97856ZM8.95066 15.9563L8.15067 15.9586L8.15073 15.9812L8.15208 16.0038L8.95066 15.9563ZM10.1493 16.6211L10.5367 17.321L10.5734 17.3007L10.6078 17.2767L10.1493 16.6211ZM11.9999 20.8C7.1398 20.8 3.1999 16.8601 3.1999 12H1.5999C1.5999 17.7438 6.25614 22.4 11.9999 22.4V20.8ZM20.7999 12C20.7999 16.8601 16.86 20.8 11.9999 20.8V22.4C17.7437 22.4 22.3999 17.7438 22.3999 12H20.7999ZM11.9999 3.19999C16.86 3.19999 20.7999 7.13989 20.7999 12H22.3999C22.3999 6.25623 17.7437 1.59999 11.9999 1.59999V3.19999ZM11.9999 1.59999C6.25614 1.59999 1.5999 6.25623 1.5999 12H3.1999C3.1999 7.13989 7.1398 3.19999 11.9999 3.19999V1.59999ZM16.0357 13.4799C16.4537 13.2077 16.9281 12.7557 16.9272 12.1004C16.9263 11.427 16.4293 10.989 15.9995 10.7406L15.1989 12.1259C15.256 12.1589 15.2967 12.1877 15.3246 12.2103C15.3526 12.2331 15.3639 12.2468 15.3656 12.249C15.3669 12.2507 15.3569 12.2384 15.3466 12.2113C15.3414 12.1977 15.3364 12.1812 15.3329 12.1622C15.3292 12.1432 15.3273 12.1231 15.3272 12.1025C15.3272 12.082 15.3291 12.0627 15.3323 12.0453C15.3355 12.0279 15.3398 12.0135 15.3439 12.0025C15.3519 11.9808 15.3583 11.9741 15.3526 11.9818C15.3468 11.9897 15.331 12.0088 15.2991 12.0371C15.2674 12.0654 15.223 12.0998 15.1628 12.139L16.0357 13.4799ZM16.0736 10.789L10.5582 6.72776L9.60945 8.01615L15.1249 12.0774L16.0736 10.789ZM10.5119 6.69614C10.0782 6.42144 9.49096 6.27736 8.94704 6.53132C8.35894 6.80592 8.1156 7.40173 8.1277 7.99489L9.72737 7.96224C9.72564 7.87762 9.74231 7.86178 9.73031 7.88474C9.72415 7.89653 9.71223 7.91471 9.69223 7.93406C9.67213 7.95351 9.64859 7.96958 9.62395 7.98108C9.57357 8.0046 9.54213 7.99907 9.54874 7.99999C9.55643 8.00107 9.59438 8.00893 9.65571 8.04778L10.5119 6.69614ZM8.12754 7.98088L8.15067 15.9586L9.75066 15.954L9.72753 7.97625L8.12754 7.98088ZM8.15208 16.0038C8.18241 16.5133 8.3567 17.1353 8.93464 17.444C9.50431 17.7482 10.1116 17.5563 10.5367 17.321L9.76196 15.9211C9.7072 15.9514 9.66299 15.971 9.62933 15.9833C9.59552 15.9956 9.57617 15.9991 9.57015 16C9.56445 16.0008 9.57505 15.9986 9.59803 16.0019C9.60957 16.0036 9.62362 16.0066 9.63944 16.0118C9.65532 16.0169 9.67186 16.0238 9.68839 16.0326C9.70493 16.0415 9.72013 16.0515 9.7337 16.0623C9.74723 16.073 9.75811 16.0835 9.76654 16.0929C9.78343 16.1118 9.78833 16.1235 9.7865 16.1196C9.78449 16.1153 9.77693 16.0976 9.76887 16.0615C9.76083 16.0255 9.75321 15.9753 9.74925 15.9087L8.15208 16.0038ZM10.6078 17.2767L16.0577 13.465L15.1407 12.1539L9.69082 15.9655L10.6078 17.2767Z" fill="#061032"/>
</svg>
