<svg width="19" height="19" viewBox="0 0 19 19" fill="none" xmlns="http://www.w3.org/2000/svg">
<path fill-rule="evenodd" clip-rule="evenodd" d="M10.9447 3.7372C10.6241 2.42093 8.75091 2.42093 8.43027 3.7372C8.3824 3.93499 8.28851 4.11869 8.15623 4.27334C8.02396 4.42799 7.85704 4.54922 7.66906 4.62718C7.48107 4.70513 7.27734 4.7376 7.07444 4.72195C6.87154 4.7063 6.6752 4.64296 6.5014 4.53709C5.34374 3.8317 4.01901 5.15641 4.72441 6.31406C5.18005 7.06163 4.77588 8.03702 3.92535 8.24374C2.60822 8.56353 2.60822 10.4375 3.92535 10.7565C4.1232 10.8044 4.30693 10.8984 4.46158 11.0308C4.61623 11.1631 4.73743 11.3302 4.81532 11.5182C4.8932 11.7063 4.92556 11.9101 4.90976 12.1131C4.89396 12.316 4.83045 12.5124 4.72441 12.6862C4.01901 13.8438 5.34374 15.1685 6.5014 14.4631C6.67517 14.3571 6.87152 14.2936 7.07448 14.2778C7.27744 14.262 7.48126 14.2943 7.66934 14.3722C7.85742 14.4501 8.02445 14.5713 8.15683 14.7259C8.28921 14.8806 8.38319 15.0643 8.43112 15.2622C8.75091 16.5793 10.6249 16.5793 10.9439 15.2622C10.992 15.0644 11.086 14.8808 11.2185 14.7263C11.3509 14.5717 11.5179 14.4506 11.7059 14.3728C11.8939 14.2949 12.0977 14.2625 12.3006 14.2782C12.5035 14.2939 12.6998 14.3573 12.8736 14.4631C14.0313 15.1685 15.356 13.8438 14.6506 12.6862C14.5447 12.5123 14.4814 12.316 14.4657 12.1131C14.45 11.9102 14.4824 11.7065 14.5602 11.5185C14.6381 11.3304 14.7592 11.1634 14.9138 11.031C15.0683 10.8986 15.2519 10.8046 15.4496 10.7565C16.7668 10.4367 16.7668 8.56268 15.4496 8.24374C15.2518 8.19581 15.0681 8.10183 14.9134 7.96946C14.7588 7.83708 14.6376 7.67006 14.5597 7.48198C14.4818 7.29389 14.4494 7.09008 14.4652 6.88713C14.481 6.68417 14.5445 6.48782 14.6506 6.31406C15.356 5.15641 14.0313 3.8317 12.8736 4.53709C12.6998 4.64314 12.5035 4.70664 12.3005 4.72244C12.0976 4.73824 11.8937 4.70588 11.7057 4.628C11.5176 4.55012 11.3505 4.42892 11.2182 4.27427C11.0858 4.11962 10.9918 3.93589 10.9439 3.73805L10.9447 3.7372Z" stroke="#061032" stroke-width="1.6"/>
<path d="M11.1875 9.5C11.1875 10.3284 10.5159 11 9.6875 11C8.85907 11 8.1875 10.3284 8.1875 9.5C8.1875 8.67157 8.85907 8 9.6875 8C10.5159 8 11.1875 8.67157 11.1875 9.5Z" stroke="#061032" stroke-width="1.6"/>
</svg>
