<svg width="24" height="24" viewBox="0 0 24 24" fill="none" xmlns="http://www.w3.org/2000/svg">
<path d="M11.5668 4.03322C11.744 3.67415 12.2561 3.67415 12.4333 4.03322L14.7274 8.68152C14.7977 8.82411 14.9338 8.92294 15.0911 8.94581L20.2208 9.6912C20.6171 9.74878 20.7753 10.2357 20.4886 10.5153L16.7767 14.1334C16.6628 14.2444 16.6109 14.4043 16.6377 14.5611L17.514 19.67C17.5817 20.0647 17.1674 20.3657 16.813 20.1793L12.2249 17.7672C12.0841 17.6932 11.916 17.6932 11.7752 17.7672L7.18709 20.1793C6.83266 20.3657 6.41842 20.0647 6.48611 19.67L7.36237 14.5611C7.38925 14.4043 7.33729 14.2444 7.22342 14.1334L3.51154 10.5153C3.2248 10.2357 3.38302 9.74878 3.77929 9.6912L8.90899 8.94581C9.06634 8.92294 9.20238 8.82411 9.27275 8.68152L11.5668 4.03322Z" stroke="#061032" stroke-width="1.6" stroke-linejoin="round"/>
</svg>
