<svg width="19" height="20" viewBox="0 0 19 20" fill="none" xmlns="http://www.w3.org/2000/svg">
<path d="M1 8.67685C0.734784 8.67685 0.48043 8.78221 0.292893 8.96974C0.105357 9.15728 0 9.41163 0 9.67685V12.9347C0 13.1999 0.105357 13.4542 0.292893 13.6418C0.48043 13.8293 0.734784 13.9347 1 13.9347C1.26522 13.9347 1.51957 13.8293 1.70711 13.6418C1.89464 13.4542 2 13.1999 2 12.9347V9.67685C2 9.41163 1.89464 9.15728 1.70711 8.96974C1.51957 8.78221 1.26522 8.67685 1 8.67685Z" fill="#061032"/>
<path d="M4.19995 5.43835C3.93473 5.43835 3.68038 5.54371 3.49284 5.73125C3.30531 5.91878 3.19995 6.17314 3.19995 6.43835V16.1731C3.19995 16.4383 3.30531 16.6927 3.49284 16.8802C3.68038 17.0678 3.93473 17.1731 4.19995 17.1731C4.46517 17.1731 4.71952 17.0678 4.90706 16.8802C5.09459 16.6927 5.19995 16.4383 5.19995 16.1731V6.43835C5.19995 6.17314 5.09459 5.91878 4.90706 5.73125C4.71952 5.54371 4.46517 5.43835 4.19995 5.43835Z" fill="#061032"/>
<path d="M7.3999 0.5C7.13469 0.5 6.88033 0.605357 6.6928 0.792893C6.50526 0.98043 6.3999 1.23478 6.3999 1.5V15.5C6.3999 15.7652 6.50526 16.0196 6.6928 16.2071C6.88033 16.3946 7.13469 16.5 7.3999 16.5C7.66512 16.5 7.91947 16.3946 8.10701 16.2071C8.29455 16.0196 8.3999 15.7652 8.3999 15.5V1.5C8.3999 1.23478 8.29455 0.98043 8.10701 0.792893C7.91947 0.605357 7.66512 0.5 7.3999 0.5Z" fill="#061032"/>
<path d="M10.5999 3.6969C10.3346 3.6969 10.0803 3.80226 9.89275 3.98979C9.70521 4.17733 9.59985 4.43168 9.59985 4.6969V12.3031C9.59985 12.5683 9.70521 12.8227 9.89275 13.0102C10.0803 13.1978 10.3346 13.3031 10.5999 13.3031C10.8651 13.3031 11.1194 13.1978 11.307 13.0102C11.4945 12.8227 11.5999 12.5683 11.5999 12.3031V4.6969C11.5999 4.43168 11.4945 4.17733 11.307 3.98979C11.1194 3.80226 10.8651 3.6969 10.5999 3.6969Z" fill="#061032"/>
<path d="M13.8 5C13.5348 5 13.2805 5.10536 13.0929 5.29289C12.9054 5.48043 12.8 5.73478 12.8 6V11C12.8 11.2652 12.9054 11.5196 13.0929 11.7071C13.2805 11.8946 13.5348 12 13.8 12C14.0653 12 14.3196 11.8946 14.5072 11.7071C14.6947 11.5196 14.8 11.2652 14.8 11V6C14.8 5.73478 14.6947 5.48043 14.5072 5.29289C14.3196 5.10536 14.0653 5 13.8 5Z" fill="#061032"/>
<circle cx="11.8724" cy="12.9101" r="6.67243" fill="#061032"/>
<path d="M10.4003 16.3617H11.9743M11.9743 16.3617H13.6212M11.9743 16.3617V9.45856M11.9743 9.45856H9.4069C9.13458 9.45856 8.91382 9.67932 8.91382 9.95164V10.6768M11.9743 9.45856H14.3377C14.61 9.45856 14.8308 9.67932 14.8308 9.95164V10.8798" stroke="white" stroke-width="1.6" stroke-linecap="round" stroke-linejoin="round"/>
</svg>
