<svg width="24" height="24" viewBox="0 0 24 24" fill="none" xmlns="http://www.w3.org/2000/svg">
<path fill-rule="evenodd" clip-rule="evenodd" d="M9 5H15C16.8565 5 18.637 5.7375 19.9497 7.05025C21.2625 8.36301 22 10.1435 22 12C22 13.8565 21.2625 15.637 19.9497 16.9497C18.637 18.2625 16.8565 19 15 19H9C7.14348 19 5.36301 18.2625 4.05025 16.9497C2.7375 15.637 2 13.8565 2 12C2 10.1435 2.7375 8.36301 4.05025 7.05025C5.36301 5.7375 7.14348 5 9 5ZM9 17H15C16.3261 17 17.5979 16.4732 18.5355 15.5355C19.4732 14.5979 20 13.3261 20 12C20 10.6739 19.4732 9.40215 18.5355 8.46447C17.5979 7.52678 16.3261 7 15 7H9C7.67392 7 6.40215 7.52678 5.46447 8.46447C4.52678 9.40215 4 10.6739 4 12C4 13.3261 4.52678 14.5979 5.46447 15.5355C6.40215 16.4732 7.67392 17 9 17ZM7.33329 9.50559C7.82664 9.17595 8.40666 9 9 9C9.79565 9 10.5587 9.31607 11.1213 9.87868C11.6839 10.4413 12 11.2044 12 12C12 12.5933 11.8241 13.1734 11.4944 13.6667C11.1648 14.1601 10.6962 14.5446 10.1481 14.7716C9.59987 14.9987 8.99667 15.0581 8.41473 14.9424C7.83279 14.8266 7.29824 14.5409 6.87868 14.1213C6.45912 13.7018 6.1734 13.1672 6.05765 12.5853C5.94189 12.0033 6.0013 11.4001 6.22836 10.8519C6.45543 10.3038 6.83994 9.83524 7.33329 9.50559ZM8.44443 12.8315C8.60888 12.9414 8.80222 13 9 13C9.26522 13 9.51957 12.8946 9.70711 12.7071C9.89464 12.5196 10 12.2652 10 12C10 11.8022 9.94135 11.6089 9.83147 11.4444C9.72159 11.28 9.56541 11.1518 9.38268 11.0761C9.19996 11.0004 8.99889 10.9806 8.80491 11.0192C8.61093 11.0578 8.43275 11.153 8.29289 11.2929C8.15304 11.4327 8.0578 11.6109 8.01922 11.8049C7.98063 11.9989 8.00043 12.2 8.07612 12.3827C8.15181 12.5654 8.27998 12.7216 8.44443 12.8315Z" fill="#061032"/>
</svg>
