<svg width="24" height="24" viewBox="0 0 24 24" fill="none" xmlns="http://www.w3.org/2000/svg">
<path fill-rule="evenodd" clip-rule="evenodd" d="M9 5H15C16.8565 5 18.637 5.7375 19.9497 7.05025C21.2625 8.36301 22 10.1435 22 12C22 13.8565 21.2625 15.637 19.9497 16.9497C18.637 18.2625 16.8565 19 15 19H9C7.14348 19 5.36301 18.2625 4.05025 16.9497C2.7375 15.637 2 13.8565 2 12C2 10.1435 2.7375 8.36301 4.05025 7.05025C5.36301 5.7375 7.14348 5 9 5ZM5.46447 15.5355C6.40215 16.4732 7.67392 17 9 17H15C16.3261 17 17.5979 16.4732 18.5355 15.5355C19.4732 14.5979 20 13.3261 20 12C20 10.6739 19.4732 9.40215 18.5355 8.46447C17.5979 7.52678 16.3261 7 15 7H9C7.67392 7 6.40215 7.52678 5.46447 8.46447C4.52678 9.40215 4 10.6739 4 12C4 13.3261 4.52678 14.5979 5.46447 15.5355ZM13.3333 9.50559C13.8266 9.17595 14.4067 9 15 9C15.7957 9 16.5587 9.31607 17.1213 9.87868C17.6839 10.4413 18 11.2044 18 12C18 12.5933 17.8241 13.1734 17.4944 13.6667C17.1648 14.1601 16.6962 14.5446 16.1481 14.7716C15.5999 14.9987 14.9967 15.0581 14.4147 14.9424C13.8328 14.8266 13.2982 14.5409 12.8787 14.1213C12.4591 13.7018 12.1734 13.1672 12.0576 12.5853C11.9419 12.0033 12.0013 11.4001 12.2284 10.8519C12.4554 10.3038 12.8399 9.83524 13.3333 9.50559ZM14.4444 12.8315C14.6089 12.9414 14.8022 13 15 13C15.2652 13 15.5196 12.8946 15.7071 12.7071C15.8946 12.5196 16 12.2652 16 12C16 11.8022 15.9414 11.6089 15.8315 11.4444C15.7216 11.28 15.5654 11.1518 15.3827 11.0761C15.2 11.0004 14.9989 10.9806 14.8049 11.0192C14.6109 11.0578 14.4327 11.153 14.2929 11.2929C14.153 11.4327 14.0578 11.6109 14.0192 11.8049C13.9806 11.9989 14.0004 12.2 14.0761 12.3827C14.1518 12.5654 14.28 12.7216 14.4444 12.8315Z" fill="#061032"/>
</svg>
