<svg width="24" height="24" viewBox="0 0 24 24" fill="none" xmlns="http://www.w3.org/2000/svg">
<path d="M16.2099 16H7.78995C7.45753 16.0005 7.13178 15.9068 6.85039 15.7299C6.56901 15.5529 6.34349 15.2998 6.19995 15C6.03191 14.6443 5.9672 14.2485 6.01316 13.8577C6.05913 13.467 6.21394 13.097 6.45995 12.79L10.6699 7.69001C10.8352 7.49938 11.0394 7.34649 11.2689 7.24171C11.4984 7.13693 11.7477 7.0827 11.9999 7.0827C12.2522 7.0827 12.5015 7.13693 12.731 7.24171C12.9605 7.34649 13.1647 7.49938 13.3299 7.69001L17.5399 12.79C17.786 13.097 17.9408 13.467 17.9867 13.8577C18.0327 14.2485 17.968 14.6443 17.7999 15C17.6564 15.2998 17.4309 15.5529 17.1495 15.7299C16.8681 15.9068 16.5424 16.0005 16.2099 16ZM7.99995 14H15.8999L11.9999 9.18001L7.99995 14Z" fill="#061032"/>
</svg>
