<svg width="24" height="24" viewBox="0 0 24 24" fill="none" xmlns="http://www.w3.org/2000/svg">
<path d="M16.2101 7.08269H7.79007C7.45766 7.08221 7.1319 7.17588 6.85052 7.35285C6.56913 7.52983 6.34361 7.78287 6.20007 8.08269C6.03204 8.43843 5.96732 8.83423 6.01329 9.22496C6.05926 9.6157 6.21406 9.98566 6.46007 10.2927L10.6701 15.3927C10.8353 15.5833 11.0396 15.7362 11.269 15.841C11.4985 15.9458 11.7478 16 12.0001 16C12.2523 16 12.5016 15.9458 12.7311 15.841C12.9606 15.7362 13.1649 15.5833 13.3301 15.3927L17.5401 10.2927C17.7861 9.98566 17.9409 9.6157 17.9869 9.22496C18.0328 8.83423 17.9681 8.43843 17.8001 8.08269C17.6565 7.78287 17.431 7.52983 17.1496 7.35285C16.8682 7.17588 16.5425 7.08221 16.2101 7.08269ZM8.00007 9.08269H15.9001L12.0001 13.9027L8.00007 9.08269Z" fill="#061032"/>
</svg>
