<svg width="24" height="24" viewBox="0 0 24 24" fill="none" xmlns="http://www.w3.org/2000/svg">
<path fill-rule="evenodd" clip-rule="evenodd" d="M2.93677 9.42544C3.16865 7.17155 3.98732 5.81468 4.91368 5.01626C5.85331 4.20641 6.9862 3.90001 7.95265 3.90001C9.3155 3.90001 10.6194 4.00061 11.703 4.68753C12.7421 5.34619 13.7476 6.66087 14.2227 9.48275C14.2345 9.5527 14.2545 9.62101 14.2823 9.68626L15.638 12.8667H14.4869C13.9898 12.8667 13.5869 13.2696 13.5869 13.7667V16.6571C13.5869 16.7124 13.5421 16.7571 13.4869 16.7571H11.4711C10.974 16.7571 10.5711 17.1601 10.5711 17.6571C10.5711 18.1624 10.626 18.9776 10.7873 19.8441C10.9463 20.6978 11.2232 21.6834 11.7105 22.4727C11.9716 22.8957 12.5261 23.0269 12.9491 22.7659C13.372 22.5048 13.5033 21.9502 13.2422 21.5273C12.9252 21.0138 12.6995 20.2803 12.5569 19.5145C12.4943 19.1781 12.4505 18.8514 12.4213 18.5571H13.4869C14.5362 18.5571 15.3869 17.7065 15.3869 16.6571V14.6667H17C17.3023 14.6667 17.5843 14.515 17.7509 14.2628C17.9175 14.0107 17.9465 13.6918 17.828 13.4137L15.9794 9.07731C15.4403 5.9925 14.25 4.17088 12.6667 3.16724C11.1099 2.18035 9.33761 2.10001 7.95265 2.10001C6.62722 2.10001 5.05586 2.51741 3.73853 3.6528C2.40795 4.79961 1.41698 6.60941 1.14622 9.24124C0.791676 12.6875 2.54412 15.4327 3.88689 16.8907C4.25361 17.2889 4.40509 17.7606 4.3329 18.155C4.06619 19.6121 4.04459 19.7281 3.55805 21.7937C3.44409 22.2775 3.74392 22.7621 4.22774 22.876C4.71155 22.99 5.19615 22.6902 5.3101 22.2063C5.8019 20.1184 5.83018 19.9722 6.10348 18.4791C6.3014 17.3978 5.86052 16.3767 5.21095 15.6714C4.04821 14.4088 2.6561 12.1536 2.93677 9.42544ZM11 9.47501C11.4971 9.47501 11.9 9.87795 11.9 10.375V10.5C11.9 10.9971 11.4971 11.4 11 11.4C10.503 11.4 10.1 10.9971 10.1 10.5V10.375C10.1 9.87795 10.503 9.47501 11 9.47501ZM19.7897 14.75C20.204 14.75 20.5397 15.0858 20.5397 15.5V21.58C20.5397 21.9942 20.204 22.33 19.7897 22.33C19.3755 22.33 19.0397 21.9942 19.0397 21.58V15.5C19.0397 15.0858 19.3755 14.75 19.7897 14.75ZM17 16.75C17.4143 16.75 17.75 17.0858 17.75 17.5V20C17.75 20.4142 17.4143 20.75 17 20.75C16.5858 20.75 16.25 20.4142 16.25 20V17.5C16.25 17.0858 16.5858 16.75 17 16.75ZM22.5 16.75C22.9143 16.75 23.25 17.0858 23.25 17.5V20C23.25 20.4142 22.9143 20.75 22.5 20.75C22.0858 20.75 21.75 20.4142 21.75 20V17.5C21.75 17.0858 22.0858 16.75 22.5 16.75Z" fill="#061032"/>
</svg>
