<svg width="24" height="24" viewBox="0 0 24 24" fill="none" xmlns="http://www.w3.org/2000/svg">
<path d="M12 20C16.4183 20 20 16.4183 20 12C20 7.58172 16.4183 4 12 4M12 20C7.58172 20 4 16.4183 4 12C4 7.58172 7.58172 4 12 4M12 20C10.067 20 8.5 16.4183 8.5 12C8.5 7.58172 10.067 4 12 4M12 20C13.933 20 15.5 16.4183 15.5 12C15.5 7.58172 13.933 4 12 4M5.5 15.8884C6.96562 15.0491 9.40065 14.5 12.1568 14.5C15.0333 14.5 17.56 15.0981 19 16M5.5 8.11163C6.96562 8.95089 9.40065 9.5 12.1568 9.5C15.0333 9.5 17.56 8.90187 19 8" stroke="#061032" stroke-width="1.8"/>
</svg>
